<mxfile host="app.diagrams.net" agent="Mozilla/5.0 (Windows NT 10.0; Win64; x64) AppleWebKit/537.36 (KHTML, like Gecko) Chrome/134.0.0.0 Safari/537.36 Edg/134.0.0.0" version="25.0.3">
  <diagram name="Page-1" id="galLHc4imf3SUBBnoCeO">
    <mxGraphModel dx="2382" dy="1920" grid="1" gridSize="10" guides="1" tooltips="1" connect="1" arrows="1" fold="1" page="1" pageScale="1" pageWidth="850" pageHeight="1100" math="0" shadow="0">
      <root>
        <mxCell id="0" />
        <mxCell id="1" parent="0" />
        <mxCell id="AHZsWH8fcAbMLCLpVFPQ-68" value="" style="rounded=1;whiteSpace=wrap;html=1;arcSize=16;" parent="1" vertex="1">
          <mxGeometry x="-580" y="-460" width="840" height="630" as="geometry" />
        </mxCell>
        <mxCell id="AHZsWH8fcAbMLCLpVFPQ-60" value="" style="rounded=0;whiteSpace=wrap;html=1;" parent="1" vertex="1">
          <mxGeometry x="-383.51" y="-130" width="533.51" height="170" as="geometry" />
        </mxCell>
        <mxCell id="AHZsWH8fcAbMLCLpVFPQ-45" value="" style="rounded=1;whiteSpace=wrap;html=1;" parent="1" vertex="1">
          <mxGeometry x="-570.58" y="-370" width="180" height="410" as="geometry" />
        </mxCell>
        <mxCell id="AHZsWH8fcAbMLCLpVFPQ-31" value="" style="rounded=1;whiteSpace=wrap;html=1;" parent="1" vertex="1">
          <mxGeometry x="-550.58" y="-247.5" width="140" height="115" as="geometry" />
        </mxCell>
        <mxCell id="AHZsWH8fcAbMLCLpVFPQ-5" style="edgeStyle=orthogonalEdgeStyle;rounded=0;orthogonalLoop=1;jettySize=auto;html=1;" parent="1" source="AHZsWH8fcAbMLCLpVFPQ-3" edge="1">
          <mxGeometry relative="1" as="geometry">
            <mxPoint x="-340" y="-50" as="targetPoint" />
          </mxGeometry>
        </mxCell>
        <mxCell id="AHZsWH8fcAbMLCLpVFPQ-3" value="" style="shape=image;imageAspect=0;aspect=fixed;verticalLabelPosition=bottom;verticalAlign=top;image=https://th.bing.com/th?id=OIP.ZebBExf9_RgrAWDCbPWKJwHaHa&amp;w=250&amp;h=250&amp;c=8&amp;rs=1&amp;qlt=90&amp;r=0&amp;o=6&amp;dpr=1.3&amp;pid=3.1&amp;rm=2;" parent="1" vertex="1">
          <mxGeometry x="-509.14" y="-220" width="60" height="60" as="geometry" />
        </mxCell>
        <mxCell id="AHZsWH8fcAbMLCLpVFPQ-7" value="&lt;font style=&quot;font-size: 13px;&quot;&gt;Web Scraping&lt;/font&gt;" style="text;html=1;align=center;verticalAlign=middle;whiteSpace=wrap;rounded=0;strokeWidth=2;" parent="1" vertex="1">
          <mxGeometry x="-529.14" y="-120" width="80" height="30" as="geometry" />
        </mxCell>
        <mxCell id="AHZsWH8fcAbMLCLpVFPQ-12" style="edgeStyle=orthogonalEdgeStyle;rounded=0;orthogonalLoop=1;jettySize=auto;html=1;" parent="1" source="AHZsWH8fcAbMLCLpVFPQ-9" target="AHZsWH8fcAbMLCLpVFPQ-13" edge="1">
          <mxGeometry relative="1" as="geometry">
            <mxPoint x="-240" y="-50" as="targetPoint" />
          </mxGeometry>
        </mxCell>
        <mxCell id="AHZsWH8fcAbMLCLpVFPQ-9" value="" style="shape=image;imageAspect=0;aspect=fixed;verticalLabelPosition=bottom;verticalAlign=top;image=https://th.bing.com/th?id=OIP.OTjg4nh8v0I6tbUvKXkr3wHaJI&amp;w=225&amp;h=277&amp;c=8&amp;rs=1&amp;qlt=90&amp;r=0&amp;o=6&amp;dpr=1.3&amp;pid=3.1&amp;rm=2;" parent="1" vertex="1">
          <mxGeometry x="-340" y="-80" width="48.67" height="60" as="geometry" />
        </mxCell>
        <mxCell id="AHZsWH8fcAbMLCLpVFPQ-10" value="Stored" style="text;html=1;align=center;verticalAlign=middle;whiteSpace=wrap;rounded=0;" parent="1" vertex="1">
          <mxGeometry x="-390.58" y="-220" width="60" height="30" as="geometry" />
        </mxCell>
        <mxCell id="AHZsWH8fcAbMLCLpVFPQ-11" value="Data lake" style="text;html=1;align=center;verticalAlign=middle;whiteSpace=wrap;rounded=0;" parent="1" vertex="1">
          <mxGeometry x="-345.66999999999996" y="-20" width="60" height="30" as="geometry" />
        </mxCell>
        <mxCell id="AHZsWH8fcAbMLCLpVFPQ-16" style="edgeStyle=orthogonalEdgeStyle;rounded=0;orthogonalLoop=1;jettySize=auto;html=1;exitX=0;exitY=0.5;exitDx=0;exitDy=0;" parent="1" source="AHZsWH8fcAbMLCLpVFPQ-13" edge="1">
          <mxGeometry relative="1" as="geometry">
            <mxPoint x="-190" y="-50" as="targetPoint" />
          </mxGeometry>
        </mxCell>
        <mxCell id="AHZsWH8fcAbMLCLpVFPQ-17" style="edgeStyle=orthogonalEdgeStyle;rounded=0;orthogonalLoop=1;jettySize=auto;html=1;" parent="1" source="AHZsWH8fcAbMLCLpVFPQ-13" target="AHZsWH8fcAbMLCLpVFPQ-18" edge="1">
          <mxGeometry relative="1" as="geometry">
            <mxPoint x="-140" y="-50" as="targetPoint" />
            <Array as="points">
              <mxPoint x="-100" y="-50" />
            </Array>
          </mxGeometry>
        </mxCell>
        <mxCell id="AHZsWH8fcAbMLCLpVFPQ-13" value="" style="shape=image;verticalLabelPosition=bottom;labelBackgroundColor=default;verticalAlign=top;aspect=fixed;imageAspect=0;image=data:image/jpeg,/9j/4AAQSkZJRgABAQAAAQABAAD/2wCEABsbGxscGx4hIR4qLSgtKj04MzM4PV1CR0JHQl2NWGdYWGdYjX2Xe3N7l33gsJycsOD/2c7Z//////////////8BGxsbGxwbHiEhHiotKC0qPTgzMzg9XUJHQkdCXY1YZ1hYZ1iNfZd7c3uXfeCwnJyw4P/Zztn////////////////CABEIAPoA+gMBIgACEQEDEQH/xAAbAAEAAwEBAQEAAAAAAAAAAAAABAUGAwIBB//aAAgBAQAAAADSg8QIUSNwjcfg6Su8iXNn9gBypaeu8gPvwAm215LBnc3zep8+ZK79unr688+XCNEgQOL7darqZOiXN1Z+wAA+QKak4zd17jfn3bcTAAAA5Y2s1t7BwfXaWIAAAcMXA1Gig4N9s7q17gAB4raam8NRooOD7uBMny5Ujt09fXnny4RocKB5epUPUaKDg7La1FPWcgAA9WFvdUWZ1Gig4Sx3B8iQYkbhx5+D177dpMubN9mbzOo0UHB2W4AAAAzeZ1Gig4Oy3AAAAGbzOo0UHB99zKAAADxjKvUaKDg3u6urL6AACHTUPBqNFBwfT54dLGdMlSOvQPPLhFiQa6Od+Go0UHB2Wxo6eD8B99fXnyBJt7ypzOo0UHB2W4OMCDEi8OXL4fffXvJlzZ8ozeZ1Gig4Oy3AAfPj0AGbzOo0UHB2W4AAAAzeZ1Gig4OTvOoAAAMbT6jRQcG7391KAAA5VFBAajRQcH78/EyynTJPf0B85RokKur/AC9+NRooODstVQ0/EHTr7PPPl8D3aXkHNajRQcHZbh8gwIMSLw8gfe0mXNn2Htm8zqNFBwljuADnz8Hrp0+gM3mdRooODstwAAABm8zqNFDwMve+gAAAZKi1d/8AMLAm6O39gAAfK3P1HTeSnDH1j3Z2M6ZI+gDjEhV1XwSdfZBU0FX8H3v36/Ry48PATb299gOVbXQokb4AO8uZPs5QAA+cs5n/AD9LXVyfoAf/xAAUAQEAAAAAAAAAAAAAAAAAAAAA/9oACgICEAMQAAAAAAAAAAAAAAAAAAAAAAAAAAAAAAAAAAAAAAAAAAAAAAAAAAAAAAAAAAAAAAAAAAAAAAAAAAAAAAAAAAAAAAAAAP/EAD0QAAEDAgMDCAcIAQUBAAAAAAECAwQABRARcgYxMhIgM0NEUXGSMDQ1QFJUghMUFSFBQlORsSIjYWKhgf/aAAgBAQABPwDnLcbbGbi0oHeo5U5dre31+ekUu/sDgYWaXtA/+xhoUb3cDucSnwRRulwV2pdLkyHON9xXirnJddRwuKHgaTcp6d0p2hebiOuz8UikX+WOJto0jaFH7439Kpu9QF71rRqTTUiO90byF+B9G68ywnlOuJQP+afv7KegaK9VPXee91xQO5FKUpRzUST3n0OXombhNY4H1/5FMX9W59kakVHnRZXROgn4T+R53iQAN5NTb4EZoieenXXHllbiytXeTilClnJCSo9wGdN2me51BTqpuwPnpH0CkWCMON5w0izQBvaJ8VUm3QU9mboRoydzDY8EighA3IH9cwpSd6RRYYVvZQfFIowISuzNeWlWi3q6il2GGdy3U0vZ89XJpyyz0bkBek06w8ycnWlo1DHPKod6fZyQ/m6imXmn2w40sKSeZeLkXVqjNHJpPH/3OCUlRASCSdwFR7JLd6XJoUxZYTXEC5qpDaGxkhCUjuAy9yIBGRp+1wX97ISe9H5U/YHB0DoVqp5h5hfIdbUhXccIM1yE8Fp4TxoptxDraHEHNKgCMJjpZivuDels5YMMrkPNtI3rOVRILENOTac1fqs7z7w6y0+godQFJq5wPuTqcjm2vgwsLpVFcb+BeFz9Qk6MGXVsOodQclIOYqFcmJgAzCHfgPvD8liKjlvOBP8Ak1cJypzwVlkhIyQMNnuCVqRhc/UJOjmR7vNYyBX9ojuXTF9ir6VC26akx3+ieQvwPuS3G2xm4tKB3qOVPXmC1uUXdFP32U5+TIDQpa1uKKlqKlHeSczjs9wStSMLn6hJ0YR2FyXkMoIClU/GfjK5LzZQeY1Pms8ElwUi/TU8YbXSNoR++N/S6TfoR3pdFC7249o/tJoXGAe1N0JcQ7pTPnFCRHO59rzivt2P5m/MK+3Y/nb84r71F+ZZ84oz4I7U1RutuHaRSr5AH8h8E0raFkcEZZpd/kngZaTTt1uDu+SoafypSlLOaiSe84pQpaglCSpR3ADM1JhPxENKeABczyGGz3BK1IwufqEnRhaPaUbVS0IcSUrSFJO8EZin7HEd6LNo09ZJrfAEuU4y8ycnGlo1Aj3JKVLOSUknuAzpm0z3up5GumLA0OneKtNMxmI4yaaSitoux/Xhs9wStSMLn6hJ0YWj2lG1cwgEZGnIEJ3jjo/xS7FCVwlxFL2e+CT/AGmlWGWNy2jRs1wHVA+ChRtk8dmXRgzR2V3y190l/LPeQ191lfLu+Q190lfLO+Q0IUw9le8hoW6cezLoWi4nqP8A0UmxTT+rYpGz6/3yRSLBFHG64qm7VAb3MA6qQhCBkhKUjuAy5m0XY/rw2e4JWpGFz9Qk6MLR7Sjavetoux/Xhs9wStSMLn6hJ0YWj2lG1e9bRdj+vDZ7glakYXP1CTowjPqjPtvJ3oNRZjEtHKaX4p/Ue8LcbaQVuLCEjeTV0nia8nkdGjhw2e4JWpGFz9Qk6MULW2oKQopUNxByNR77IRkH0B0Uxd4L3W8g9y6SpKgCkgg/qDn7m9PhMcb6dKf9Rp+//Ls/Uun5L8lfLedKzjs9wStSMLn6hJ0YNNOPOJbbTmo7hS0LbUUrSUqG8EZHFt11o5tuKQe9Jypu8z297oXrFN7Qr6yMDpNIv0M8SHU0m7W5faP7BpM2GvdKZ89B1pXC4g+ChzitCd60jxNGVFTxSWR9Yo3O3p3yU0u+QE/yLpe0I/ZF/tVOX2crgKEU7Lkv9K8tfieY7HfZQ2txspC8+Tnhs9wStSMLn6hJ0YWj2lG1U/GYkp5LzSV0/YE9nd/+Lp62TmOJgkd6fz9ACRQcWNy1f3X2rv8AIv8As19o58av7oqJ3k+gZhyn+iYWqmLA8endCKjW6JFyKG81fGqtoux/Xhs9wStSMLn6hJ0YWj2lG1cx1hh7pGkL8RTllgL3IKNJpdgR1cg0uwyxwraNKtFwT1FKgTU74zvlosPp3srHik0UkbwRzAM6DTqtzaz4A0IcxW6M75DSbVPV2c0ixzj/ABppFgP75NN2KEjiK101CiM9GwgczaLsf14bPcErUjC5+oSdGFo9pRtXpMh3CuQj4RXJSP0HpNoux/Xhs9wStSMLn6hJ0YWj2lG1e9bRdj+vDZ7glakYXP1CTowhv/dZLL2WfIVTLzT7aXGlhST7x3k/kBvJq8TW5TyEtcDeGz3BK1IwufqEnRixJfjL5bLhSajX8bpLX1IpiZFkdE+gnu3H3Rx5lkZuuIRqNP32KjoUF01LuMqZ0i8kfAMdnuCVqRhc/UJOjBCFuKCUJKlHcBzGZ81jo3101f5I6RptdIv8Y8bLiaRd7evr8tQNImRF8MlrzigpKuFQPgfQEgb6VJjI4pDSfFYpV0t6N8kUu/QhwodXTm0LnVRkDVTt2nu73ynRRUVEkkk95xLa0oSspISrPI9+WGz3BK1IwufqEnRhaPaUbVUq3xZfSN5L+NNP2F9HQLDlOx32Dk60tHiOeHnU7nFjwJoTJY3SXfOa/EJ3zb3nr8Rn/Nu+avxCf82956M6ad8p7zmi++re8s+KjRJO885CFuHkoSVHuAzpiyzXeMBrVUazRGMisF1VbQ9j8F4bPcErUjC5+oSdGFo9pRtWJAIyNO22C9vjpGn8qcsDB6N5aaXYJI4HWzS7RcEdTSoctG+M75TSkKTxJI8R6AAndSY0lfCw4fBJpFrnr3RzSLFMPEW003YEdY+aatEBrquXrNIbQ2MkISkdwGWO0XY/rw2e4JWpGFz9Qk6MLR7SjavRFppW9tJ8RRiRTvjNeQUYML5VnyCvuEL5Zry19whfKteWhDhjszPkFBhhO5pA8EigANw9DtF2P68NnuCVqRhc/UJOjC0e0o2r3raLsf14bPcErUjC4JK4MoD+M4QX0xpbDyuFKqQtC0pUhQUkjMEe83yU088002eiwsCSGZCu9YwIBBBq4QlQnyn9h/NBwiT5MPol/wCn9UGo18iu5B4Fo0hxt1PKbWlY70nP3QkAEk5Cn7vBY6z7RXcipd4lSQUI/wBpvBttbriW0JJUo5AVDjCLHbZH6bz3nGRHZktFt1OYqdbH4hKuNr48ULW2rlIWUnvBypq9T2t6w5rFNbQp62N5DTd5t697ikak0iZEc4JLXmoEEZggj0apEdHG+0nxUKXdrejr89Ipy/sDo2Fqp2/TFdGEN09JffObry1+JxjRX5S+Q0jP/AqBbmoSe9071c6VZoj+ZR/tLp+zzWNyA4O9FEFJIIIPceaCQcwSKTLlI4ZDo8Fmhc547U5QvFyHaa/Grj/MPIK/Grh/InyCvxq4/wAo8go3q5fMf+Cjdbie1LpU2YvfKe85pS1r4lE+J5zFumSOBk5d5/IVGsLSMjIXy/8AqKQ2htIQhASkbgB6F1hl4ZOtpX4inbJBXwhbek05YF9W+KXZp6NzYXpVS4UxvijO+WikpOSgR6NEWS5wMOK8EmkWmevqKbsEg8byE01YYqekWtdMworHRsIHuOQO8UqPHVxMNnxSKnsMo4WkDwFK38wVDbbURykJPiKaixQgZR2vIKCUp4UgeHpP/8QAFBEBAAAAAAAAAAAAAAAAAAAAgP/aAAgBAgEBPwAAf//EABQRAQAAAAAAAAAAAAAAAAAAAID/2gAIAQMBAT8AAH//2Q==;" parent="1" vertex="1">
          <mxGeometry x="-220" y="-70" width="40" height="40" as="geometry" />
        </mxCell>
        <mxCell id="AHZsWH8fcAbMLCLpVFPQ-15" value="Extract" style="text;html=1;align=center;verticalAlign=middle;whiteSpace=wrap;rounded=0;" parent="1" vertex="1">
          <mxGeometry x="-285.65999999999997" y="-80" width="60" height="30" as="geometry" />
        </mxCell>
        <mxCell id="AHZsWH8fcAbMLCLpVFPQ-21" style="edgeStyle=orthogonalEdgeStyle;rounded=0;orthogonalLoop=1;jettySize=auto;html=1;entryX=0;entryY=0.5;entryDx=0;entryDy=0;" parent="1" source="AHZsWH8fcAbMLCLpVFPQ-18" target="AHZsWH8fcAbMLCLpVFPQ-20" edge="1">
          <mxGeometry relative="1" as="geometry" />
        </mxCell>
        <mxCell id="AHZsWH8fcAbMLCLpVFPQ-18" value="" style="shape=image;verticalLabelPosition=bottom;labelBackgroundColor=default;verticalAlign=top;aspect=fixed;imageAspect=0;image=data:image/jpeg,/9j/4AAQSkZJRgABAQAAAQABAAD/2wCEABsbGxscGx4hIR4qLSgtKj04MzM4PV1CR0JHQl2NWGdYWGdYjX2Xe3N7l33gsJycsOD/2c7Z//////////////8BGxsbGxwbHiEhHiotKC0qPTgzMzg9XUJHQkdCXY1YZ1hYZ1iNfZd7c3uXfeCwnJyw4P/Zztn////////////////CABEIAPoA+gMBIgACEQEDEQH/xAAbAAEAAwEBAQEAAAAAAAAAAAAABAUGAwIBB//aAAgBAQAAAADSg8QIUSNwjcfg6Su8iXNn9gBypaeu8gPvwAm215LBnc3zep8+ZK79unr688+XCNEgQOL7darqZOiXN1Z+wAA+QKak4zd17jfn3bcTAAAA5Y2s1t7BwfXaWIAAAcMXA1Gig4N9s7q17gAB4raam8NRooOD7uBMny5Ujt09fXnny4RocKB5epUPUaKDg7La1FPWcgAA9WFvdUWZ1Gig4Sx3B8iQYkbhx5+D177dpMubN9mbzOo0UHB2W4AAAAzeZ1Gig4Oy3AAAAGbzOo0UHB99zKAAADxjKvUaKDg3u6urL6AACHTUPBqNFBwfT54dLGdMlSOvQPPLhFiQa6Od+Go0UHB2Wxo6eD8B99fXnyBJt7ypzOo0UHB2W4OMCDEi8OXL4fffXvJlzZ8ozeZ1Gig4Oy3AAfPj0AGbzOo0UHB2W4AAAAzeZ1Gig4OTvOoAAAMbT6jRQcG7391KAAA5VFBAajRQcH78/EyynTJPf0B85RokKur/AC9+NRooODstVQ0/EHTr7PPPl8D3aXkHNajRQcHZbh8gwIMSLw8gfe0mXNn2Htm8zqNFBwljuADnz8Hrp0+gM3mdRooODstwAAABm8zqNFDwMve+gAAAZKi1d/8AMLAm6O39gAAfK3P1HTeSnDH1j3Z2M6ZI+gDjEhV1XwSdfZBU0FX8H3v36/Ry48PATb299gOVbXQokb4AO8uZPs5QAA+cs5n/AD9LXVyfoAf/xAAUAQEAAAAAAAAAAAAAAAAAAAAA/9oACgICEAMQAAAAAAAAAAAAAAAAAAAAAAAAAAAAAAAAAAAAAAAAAAAAAAAAAAAAAAAAAAAAAAAAAAAAAAAAAAAAAAAAAAAAAAAAAP/EAD0QAAEDAgMDCAcIAQUBAAAAAAECAwQABRARcgYxMhIgM0NEUXGSMDQ1QFJUghMUFSFBQlORsSIjYWKhgf/aAAgBAQABPwDnLcbbGbi0oHeo5U5dre31+ekUu/sDgYWaXtA/+xhoUb3cDucSnwRRulwV2pdLkyHON9xXirnJddRwuKHgaTcp6d0p2hebiOuz8UikX+WOJto0jaFH7439Kpu9QF71rRqTTUiO90byF+B9G68ywnlOuJQP+afv7KegaK9VPXee91xQO5FKUpRzUST3n0OXombhNY4H1/5FMX9W59kakVHnRZXROgn4T+R53iQAN5NTb4EZoieenXXHllbiytXeTilClnJCSo9wGdN2me51BTqpuwPnpH0CkWCMON5w0izQBvaJ8VUm3QU9mboRoydzDY8EighA3IH9cwpSd6RRYYVvZQfFIowISuzNeWlWi3q6il2GGdy3U0vZ89XJpyyz0bkBek06w8ycnWlo1DHPKod6fZyQ/m6imXmn2w40sKSeZeLkXVqjNHJpPH/3OCUlRASCSdwFR7JLd6XJoUxZYTXEC5qpDaGxkhCUjuAy9yIBGRp+1wX97ISe9H5U/YHB0DoVqp5h5hfIdbUhXccIM1yE8Fp4TxoptxDraHEHNKgCMJjpZivuDels5YMMrkPNtI3rOVRILENOTac1fqs7z7w6y0+godQFJq5wPuTqcjm2vgwsLpVFcb+BeFz9Qk6MGXVsOodQclIOYqFcmJgAzCHfgPvD8liKjlvOBP8Ak1cJypzwVlkhIyQMNnuCVqRhc/UJOjmR7vNYyBX9ojuXTF9ir6VC26akx3+ieQvwPuS3G2xm4tKB3qOVPXmC1uUXdFP32U5+TIDQpa1uKKlqKlHeSczjs9wStSMLn6hJ0YR2FyXkMoIClU/GfjK5LzZQeY1Pms8ElwUi/TU8YbXSNoR++N/S6TfoR3pdFC7249o/tJoXGAe1N0JcQ7pTPnFCRHO59rzivt2P5m/MK+3Y/nb84r71F+ZZ84oz4I7U1RutuHaRSr5AH8h8E0raFkcEZZpd/kngZaTTt1uDu+SoafypSlLOaiSe84pQpaglCSpR3ADM1JhPxENKeABczyGGz3BK1IwufqEnRhaPaUbVS0IcSUrSFJO8EZin7HEd6LNo09ZJrfAEuU4y8ycnGlo1Aj3JKVLOSUknuAzpm0z3up5GumLA0OneKtNMxmI4yaaSitoux/Xhs9wStSMLn6hJ0YWj2lG1cwgEZGnIEJ3jjo/xS7FCVwlxFL2e+CT/AGmlWGWNy2jRs1wHVA+ChRtk8dmXRgzR2V3y190l/LPeQ191lfLu+Q190lfLO+Q0IUw9le8hoW6cezLoWi4nqP8A0UmxTT+rYpGz6/3yRSLBFHG64qm7VAb3MA6qQhCBkhKUjuAy5m0XY/rw2e4JWpGFz9Qk6MLR7Sjavetoux/Xhs9wStSMLn6hJ0YWj2lG1e9bRdj+vDZ7glakYXP1CTowjPqjPtvJ3oNRZjEtHKaX4p/Ue8LcbaQVuLCEjeTV0nia8nkdGjhw2e4JWpGFz9Qk6MULW2oKQopUNxByNR77IRkH0B0Uxd4L3W8g9y6SpKgCkgg/qDn7m9PhMcb6dKf9Rp+//Ls/Uun5L8lfLedKzjs9wStSMLn6hJ0YNNOPOJbbTmo7hS0LbUUrSUqG8EZHFt11o5tuKQe9Jypu8z297oXrFN7Qr6yMDpNIv0M8SHU0m7W5faP7BpM2GvdKZ89B1pXC4g+ChzitCd60jxNGVFTxSWR9Yo3O3p3yU0u+QE/yLpe0I/ZF/tVOX2crgKEU7Lkv9K8tfieY7HfZQ2txspC8+Tnhs9wStSMLn6hJ0YWj2lG1U/GYkp5LzSV0/YE9nd/+Lp62TmOJgkd6fz9ACRQcWNy1f3X2rv8AIv8As19o58av7oqJ3k+gZhyn+iYWqmLA8endCKjW6JFyKG81fGqtoux/Xhs9wStSMLn6hJ0YWj2lG1cx1hh7pGkL8RTllgL3IKNJpdgR1cg0uwyxwraNKtFwT1FKgTU74zvlosPp3srHik0UkbwRzAM6DTqtzaz4A0IcxW6M75DSbVPV2c0ixzj/ABppFgP75NN2KEjiK101CiM9GwgczaLsf14bPcErUjC5+oSdGFo9pRtXpMh3CuQj4RXJSP0HpNoux/Xhs9wStSMLn6hJ0YWj2lG1e9bRdj+vDZ7glakYXP1CTowhv/dZLL2WfIVTLzT7aXGlhST7x3k/kBvJq8TW5TyEtcDeGz3BK1IwufqEnRixJfjL5bLhSajX8bpLX1IpiZFkdE+gnu3H3Rx5lkZuuIRqNP32KjoUF01LuMqZ0i8kfAMdnuCVqRhc/UJOjBCFuKCUJKlHcBzGZ81jo3101f5I6RptdIv8Y8bLiaRd7evr8tQNImRF8MlrzigpKuFQPgfQEgb6VJjI4pDSfFYpV0t6N8kUu/QhwodXTm0LnVRkDVTt2nu73ynRRUVEkkk95xLa0oSspISrPI9+WGz3BK1IwufqEnRhaPaUbVUq3xZfSN5L+NNP2F9HQLDlOx32Dk60tHiOeHnU7nFjwJoTJY3SXfOa/EJ3zb3nr8Rn/Nu+avxCf82956M6ad8p7zmi++re8s+KjRJO885CFuHkoSVHuAzpiyzXeMBrVUazRGMisF1VbQ9j8F4bPcErUjC5+oSdGFo9pRtWJAIyNO22C9vjpGn8qcsDB6N5aaXYJI4HWzS7RcEdTSoctG+M75TSkKTxJI8R6AAndSY0lfCw4fBJpFrnr3RzSLFMPEW003YEdY+aatEBrquXrNIbQ2MkISkdwGWO0XY/rw2e4JWpGFz9Qk6MLR7SjavRFppW9tJ8RRiRTvjNeQUYML5VnyCvuEL5Zry19whfKteWhDhjszPkFBhhO5pA8EigANw9DtF2P68NnuCVqRhc/UJOjC0e0o2r3raLsf14bPcErUjC4JK4MoD+M4QX0xpbDyuFKqQtC0pUhQUkjMEe83yU088002eiwsCSGZCu9YwIBBBq4QlQnyn9h/NBwiT5MPol/wCn9UGo18iu5B4Fo0hxt1PKbWlY70nP3QkAEk5Cn7vBY6z7RXcipd4lSQUI/wBpvBttbriW0JJUo5AVDjCLHbZH6bz3nGRHZktFt1OYqdbH4hKuNr48ULW2rlIWUnvBypq9T2t6w5rFNbQp62N5DTd5t697ikak0iZEc4JLXmoEEZggj0apEdHG+0nxUKXdrejr89Ipy/sDo2Fqp2/TFdGEN09JffObry1+JxjRX5S+Q0jP/AqBbmoSe9071c6VZoj+ZR/tLp+zzWNyA4O9FEFJIIIPceaCQcwSKTLlI4ZDo8Fmhc547U5QvFyHaa/Grj/MPIK/Grh/InyCvxq4/wAo8go3q5fMf+Cjdbie1LpU2YvfKe85pS1r4lE+J5zFumSOBk5d5/IVGsLSMjIXy/8AqKQ2htIQhASkbgB6F1hl4ZOtpX4inbJBXwhbek05YF9W+KXZp6NzYXpVS4UxvijO+WikpOSgR6NEWS5wMOK8EmkWmevqKbsEg8byE01YYqekWtdMworHRsIHuOQO8UqPHVxMNnxSKnsMo4WkDwFK38wVDbbURykJPiKaixQgZR2vIKCUp4UgeHpP/8QAFBEBAAAAAAAAAAAAAAAAAAAAgP/aAAgBAgEBPwAAf//EABQRAQAAAAAAAAAAAAAAAAAAAID/2gAIAQMBAT8AAH//2Q==;" parent="1" vertex="1">
          <mxGeometry x="-100" y="-70" width="40" height="40" as="geometry" />
        </mxCell>
        <mxCell id="AHZsWH8fcAbMLCLpVFPQ-19" value="Transform" style="text;html=1;align=center;verticalAlign=middle;whiteSpace=wrap;rounded=0;" parent="1" vertex="1">
          <mxGeometry x="-170" y="-80" width="60" height="30" as="geometry" />
        </mxCell>
        <mxCell id="AHZsWH8fcAbMLCLpVFPQ-77" style="rounded=0;orthogonalLoop=1;jettySize=auto;html=1;exitX=0.25;exitY=0;exitDx=0;exitDy=0;entryX=0.5;entryY=1;entryDx=0;entryDy=0;" parent="1" source="AHZsWH8fcAbMLCLpVFPQ-20" target="AHZsWH8fcAbMLCLpVFPQ-73" edge="1">
          <mxGeometry relative="1" as="geometry" />
        </mxCell>
        <mxCell id="AHZsWH8fcAbMLCLpVFPQ-20" value="" style="shape=image;imageAspect=0;aspect=fixed;verticalLabelPosition=bottom;verticalAlign=top;image=https://th.bing.com/th?id=OIP.OTjg4nh8v0I6tbUvKXkr3wHaJI&amp;w=225&amp;h=277&amp;c=8&amp;rs=1&amp;qlt=90&amp;r=0&amp;o=6&amp;dpr=1.3&amp;pid=3.1&amp;rm=2;" parent="1" vertex="1">
          <mxGeometry x="20" y="-80" width="48.67" height="60" as="geometry" />
        </mxCell>
        <mxCell id="AHZsWH8fcAbMLCLpVFPQ-75" style="rounded=0;orthogonalLoop=1;jettySize=auto;html=1;entryX=0.5;entryY=1;entryDx=0;entryDy=0;" parent="1" source="AHZsWH8fcAbMLCLpVFPQ-20" target="AHZsWH8fcAbMLCLpVFPQ-74" edge="1">
          <mxGeometry relative="1" as="geometry" />
        </mxCell>
        <mxCell id="AHZsWH8fcAbMLCLpVFPQ-22" value="Load" style="text;html=1;align=center;verticalAlign=middle;whiteSpace=wrap;rounded=0;" parent="1" vertex="1">
          <mxGeometry x="-50" y="-80" width="60" height="30" as="geometry" />
        </mxCell>
        <mxCell id="AHZsWH8fcAbMLCLpVFPQ-24" value="" style="endArrow=none;html=1;rounded=0;exitX=1;exitY=1;exitDx=0;exitDy=0;entryX=0;entryY=1;entryDx=0;entryDy=0;" parent="1" source="AHZsWH8fcAbMLCLpVFPQ-9" target="AHZsWH8fcAbMLCLpVFPQ-20" edge="1">
          <mxGeometry width="50" height="50" relative="1" as="geometry">
            <mxPoint x="-160" y="170" as="sourcePoint" />
            <mxPoint x="-110" y="120" as="targetPoint" />
          </mxGeometry>
        </mxCell>
        <mxCell id="AHZsWH8fcAbMLCLpVFPQ-26" value="Apache hadoop(HDFS)" style="text;html=1;align=center;verticalAlign=middle;whiteSpace=wrap;rounded=0;" parent="1" vertex="1">
          <mxGeometry x="-383.51" y="-120" width="135.67" height="30" as="geometry" />
        </mxCell>
        <mxCell id="AHZsWH8fcAbMLCLpVFPQ-27" value="Google Cloud Storage" style="text;html=1;align=center;verticalAlign=middle;whiteSpace=wrap;rounded=0;" parent="1" vertex="1">
          <mxGeometry x="-362.83" y="10" width="94.33" height="30" as="geometry" />
        </mxCell>
        <mxCell id="AHZsWH8fcAbMLCLpVFPQ-28" value="Data warehouse" style="text;html=1;align=center;verticalAlign=middle;whiteSpace=wrap;rounded=0;" parent="1" vertex="1">
          <mxGeometry x="-3.5" y="-20" width="95.66" height="30" as="geometry" />
        </mxCell>
        <mxCell id="AHZsWH8fcAbMLCLpVFPQ-30" value="&amp;nbsp;PostgreSQL" style="text;html=1;align=center;verticalAlign=middle;whiteSpace=wrap;rounded=0;" parent="1" vertex="1">
          <mxGeometry x="68.66999999999996" y="-80" width="70" height="80" as="geometry" />
        </mxCell>
        <mxCell id="AHZsWH8fcAbMLCLpVFPQ-56" style="edgeStyle=orthogonalEdgeStyle;rounded=0;orthogonalLoop=1;jettySize=auto;html=1;endArrow=none;endFill=0;" parent="1" source="AHZsWH8fcAbMLCLpVFPQ-55" edge="1">
          <mxGeometry relative="1" as="geometry">
            <mxPoint x="-79.99499999999989" y="-20" as="targetPoint" />
            <Array as="points">
              <mxPoint x="-130" y="-20" />
            </Array>
          </mxGeometry>
        </mxCell>
        <mxCell id="AHZsWH8fcAbMLCLpVFPQ-55" value="" style="shape=image;imageAspect=0;aspect=fixed;verticalLabelPosition=bottom;verticalAlign=top;image=https://th.bing.com/th/id/OIP.FJsMPN5kPMI7JuqhsaP7rAHaC3?w=335&amp;h=135&amp;c=7&amp;r=0&amp;o=5&amp;dpr=1.3&amp;pid=1.7;" parent="1" vertex="1">
          <mxGeometry x="-180" y="110" width="99.43" height="40" as="geometry" />
        </mxCell>
        <mxCell id="AHZsWH8fcAbMLCLpVFPQ-58" value="&lt;font style=&quot;font-size: 15px;&quot;&gt;ETL&lt;/font&gt;" style="text;html=1;align=center;verticalAlign=middle;whiteSpace=wrap;rounded=0;" parent="1" vertex="1">
          <mxGeometry x="-160" y="-10" width="60" height="30" as="geometry" />
        </mxCell>
        <mxCell id="AHZsWH8fcAbMLCLpVFPQ-65" value="Event-based triggers" style="text;html=1;align=center;verticalAlign=middle;whiteSpace=wrap;rounded=0;" parent="1" vertex="1">
          <mxGeometry x="160.05999999999995" y="-55" width="80" height="30" as="geometry" />
        </mxCell>
        <mxCell id="AHZsWH8fcAbMLCLpVFPQ-83" style="rounded=0;orthogonalLoop=1;jettySize=auto;html=1;entryX=0.5;entryY=1;entryDx=0;entryDy=0;" parent="1" source="AHZsWH8fcAbMLCLpVFPQ-73" target="AHZsWH8fcAbMLCLpVFPQ-80" edge="1">
          <mxGeometry relative="1" as="geometry" />
        </mxCell>
        <mxCell id="AHZsWH8fcAbMLCLpVFPQ-84" style="rounded=0;orthogonalLoop=1;jettySize=auto;html=1;entryX=0.5;entryY=1;entryDx=0;entryDy=0;" parent="1" source="AHZsWH8fcAbMLCLpVFPQ-73" target="AHZsWH8fcAbMLCLpVFPQ-81" edge="1">
          <mxGeometry relative="1" as="geometry" />
        </mxCell>
        <mxCell id="AHZsWH8fcAbMLCLpVFPQ-73" value="" style="shape=image;imageAspect=0;aspect=fixed;verticalLabelPosition=bottom;verticalAlign=top;image=https://th.bing.com/th?id=OIP.OTjg4nh8v0I6tbUvKXkr3wHaJI&amp;w=225&amp;h=277&amp;c=8&amp;rs=1&amp;qlt=90&amp;r=0&amp;o=6&amp;dpr=1.3&amp;pid=3.1&amp;rm=2;" parent="1" vertex="1">
          <mxGeometry x="-220" y="-260" width="64.89" height="80" as="geometry" />
        </mxCell>
        <mxCell id="AHZsWH8fcAbMLCLpVFPQ-86" style="edgeStyle=orthogonalEdgeStyle;rounded=0;orthogonalLoop=1;jettySize=auto;html=1;entryX=0.5;entryY=1;entryDx=0;entryDy=0;" parent="1" source="AHZsWH8fcAbMLCLpVFPQ-74" target="AHZsWH8fcAbMLCLpVFPQ-85" edge="1">
          <mxGeometry relative="1" as="geometry" />
        </mxCell>
        <mxCell id="AHZsWH8fcAbMLCLpVFPQ-74" value="" style="shape=image;imageAspect=0;aspect=fixed;verticalLabelPosition=bottom;verticalAlign=top;image=https://th.bing.com/th?id=OIP.OTjg4nh8v0I6tbUvKXkr3wHaJI&amp;w=225&amp;h=277&amp;c=8&amp;rs=1&amp;qlt=90&amp;r=0&amp;o=6&amp;dpr=1.3&amp;pid=3.1&amp;rm=2;" parent="1" vertex="1">
          <mxGeometry x="60" y="-263.22" width="61.42" height="75.72" as="geometry" />
        </mxCell>
        <mxCell id="AHZsWH8fcAbMLCLpVFPQ-78" value="&lt;font style=&quot;font-size: 14px;&quot;&gt;Analytical Database&lt;/font&gt;" style="text;html=1;align=center;verticalAlign=middle;whiteSpace=wrap;rounded=0;" parent="1" vertex="1">
          <mxGeometry x="-305.66" y="-232.86" width="80" height="30" as="geometry" />
        </mxCell>
        <mxCell id="AHZsWH8fcAbMLCLpVFPQ-79" value="&lt;font style=&quot;font-size: 14px;&quot;&gt;Operational Database&lt;/font&gt;" style="text;html=1;align=center;verticalAlign=middle;whiteSpace=wrap;rounded=0;" parent="1" vertex="1">
          <mxGeometry x="130" y="-232.86" width="80" height="30" as="geometry" />
        </mxCell>
        <mxCell id="AHZsWH8fcAbMLCLpVFPQ-80" value="" style="shape=image;imageAspect=0;aspect=fixed;verticalLabelPosition=bottom;verticalAlign=top;image=https://th.bing.com/th/id/OIP.Y1H8LQMqfoBLbYaT6RDx9QHaEV?w=309&amp;h=181&amp;c=7&amp;r=0&amp;o=5&amp;dpr=1.3&amp;pid=1.7;imageBorder=default;" parent="1" vertex="1">
          <mxGeometry x="-341.46" y="-393.93" width="115.8" height="67.86" as="geometry" />
        </mxCell>
        <mxCell id="AHZsWH8fcAbMLCLpVFPQ-81" value="" style="shape=image;imageAspect=0;aspect=fixed;verticalLabelPosition=bottom;verticalAlign=top;image=https://th.bing.com/th/id/OIP.vylkDcgblchII7873K9wyQHaF3?w=222&amp;h=180&amp;c=7&amp;r=0&amp;o=5&amp;dpr=1.3&amp;pid=1.7;imageBorder=default;" parent="1" vertex="1">
          <mxGeometry x="-184.00000000000006" y="-410" width="98.46" height="80" as="geometry" />
        </mxCell>
        <mxCell id="AHZsWH8fcAbMLCLpVFPQ-85" value="" style="shape=image;imageAspect=0;aspect=fixed;verticalLabelPosition=bottom;verticalAlign=top;image=data:image/jpeg,/9j/4AAQSkZJRgABAQAAAQABAAD/2wBDAAsJCQcJCQcJCQkJCwkJCQkJCQsJCwsMCwsLDA0QDBEODQ4MEhkSJRodJR0ZHxwpKRYlNzU2GioyPi0pMBk7IRP/2wBDAQcICAsJCxULCxUsHRkdLCwsLCwsLCwsLCwsLCwsLCwsLCwsLCwsLCwsLCwsLCwsLCwsLCwsLCwsLCwsLCwsLCz/wAARCADqAVkDASIAAhEBAxEB/8QAHAAAAQUBAQEAAAAAAAAAAAAABAABAgMFBgcI/8QAVBAAAgECBAQDBAYGBgQKCgMAAQIDBBEABRIhBhMxQSJRYRQycYEjQlKRodEVYpKxwfAHJDNTcuEWY5OjJTQ1NkOCorLS8SZEVGRzlLO0wuJGg/L/xAAaAQACAwEBAAAAAAAAAAAAAAAAAQIDBAUG/8QAMREAAgIBAwIEBAQHAQAAAAAAAAECEQMSITEEQQUTUWEiQnGBMpGx8BQjocHR4fEz/9oADAMBAAIRAxEAPwDsbnz2wrnErarsOo95R39QMRwAPc+eFc+eGw+ABXPmcK58zhYWAB7nzxY8NQgBMb2IBB0m2/wxWMTeWWQrrkY2AUXJ2HywANol+w37LYWmX7D/ALLfliTCEEhZZSO50WufTxYb6P8AvJf2f/2wANol+w/7LflhaJvsP+y35Yf6P+8k/Z//AGw/0X95L+z/APtgAgwdbagRfpqBF/hfDXOLQ0VijSSMm+xUbHzXxYZkiW13chhdSEFmHmDfABXc+eFc+eJ2h+3J+wD/ABwzoFsytrjbZWtY38mHY4AI3OGucLCwAK5wrnzOFhYAGucK5wsLAArnCucMf4YzM1z3JMlAWvqD7SVDJSU6iWqYHoWUGyg9tRHzwCbS5NO5wrnHAVP9IcpLLQ5VAi76Xrp3ke3mUh0r/wBo4EXjziMm7R5UR5ezkD7xJfCtFTzwXJ6Vc4a588cTRcdM5C1+Xpp6NJRSG4PmYpSb/JsdfSVlJXQJU0kolhfoQCGUjqrqdwfTAmmOGaE3UWX+Lzw9z54WF5YZaK5w1zfFc89NSwy1FTNHDBHbXJIbKCb2AA3JPYAYwDxPLUgnJ8lrayO5AqJyIIW9V/8A9YAOjucNc45sZ/xFHvU8NuU6k0s2pgPhdsH0PEGT18nIDyUtWbD2auTlSEnspPhP4YANXfD3bzw297EEG+9xhYaYD6iOhwidr38hbvhsIabjV07/AAwJ9hCucK5xORdJuOh8jex69fXqP8sQwmqGK5wrnD4bAArnb44lc4byw+AC4KoIIAuP9av5YloRiTYX6kCVeg3uNsU4V7EHuOmAC9YtYbSoJUE2WVC1h5C18VXj+y37Q/8ADh7avEuzDcgDy7j+OH8DjUzaWvvsSG9RbABG8f2W/aH5YkyoRqjDWAGtWIJHqLDphtKf3n/ZbE1Chgyybgi1kY39LYAKtsTRWbURG0gA3A1beR8O+LWFiQRGDfccluuEHKhgrqA1rgROL/G2ACu3+oP/AG8K3+ob75MT1frL/sn/ADwr/rL/ALKT88AELf6g/fJhwP8A3c/7zEtX6y/7KT88Pq/WT/ZP+eACGn/3c/7zElPVWp2Kkgm3MJFu4vh9X6yf7KT88OGJIAZbkgACGTc/fgAgyaSPoCRa4I5tiD6YStGNaPGV1EBrs1vgwb9+CAsguradNzcCNrhrWuPF1xLllrGURMdgh0EXXyJv09flgACkiKH9Umw8wfsn1/n4V2xpIpAKyJHpsFC8sqLDexuenritoiv1ISL7Xia49DZuuAAHCwbo/wBXB/sm/wDFhaOl44LX3tEwP36sAAVsNg0wtfwiEg+7eK5+BseuMfOM+yHIhpzGsgWo06lpKeDnVbbXGpFNlB/WIwCboE4izWTJcnq66EA1ReKlpCwuqTzarSEH7IDEeox5ItO0xNdmU8mmoZpdmDVdYxO7LqvZb9WPyBttr8T8VzcRNBTw0opMvppDLHGSrTTSldPMmZfDsLhQOlz54zDT1NS+XxQRl3GW0ztuqoiANd5HbwhR5k4dGXLP0JLWSg2ghpYohYJGKeGQgeryqzk+ZJ/y3/Zsxpcrpc459CdZiPKNDSWHMvYKxXdhbxCwwJSNl9NBPQ0lCuaZpXQvAah4yY6ffUWo1Pi8P2jbzO2JU1OI5IaaKP8ASWYu30NOh5lFA9tyR7rsO/1R5thaTk5p+5pJJNm8WXzZ7NT0eU0RkMJghWGqrOYwLLAACxHra378X8M1UMGe1NLSGVcvrhUCBJ2BkvH44i2nbVYEH/LGfV5dUx5zDRZzmMKNLyjVVaMahIVdNQWwt02FrAD4Ypq6XMcjraaVWVijrUUVSoDQzqpuGXcj/EL98PQU48rhNSs9RthYzcg4ips8NTC1NBS1VPHHI6cppo5FY6S8ZXxAA9QfMb74nnvEWXZEI0MVPU1kqGSOnEBiRFNwrzO5vYnoALn96PSQmpx1RMivhGb55PBU2fL8kjgCwE3jmrahBKzSL0OkW2+Hz1gLWA6AWA8h5WxzfDNe1XPnYqGU1dTUjMXsNOsSKEbSvkthb4jHTqL/AMMJssSsiFwNW5dRZjE0VXEG28EgAE0R+0j9cPWV3s0hpKWkqK/MtAf2OlG8KHpJVSe6oPYE3OA4c4roZYoc7yqfLec4jhqGu1KXPuq77qCex1YhqLVACy/OKvKK1smziUyQKVWmq2vdFe2hnJ6ofXp8Bt138/xxznEmTvX0yzwJespVNlAuZoTctH53HVfmO+MfI+J3oUjo68NLRp4YZUGqenAPuEX3X53Ha42xKMkyMoNHd7d9xhbHcdO2K6eemq4xNSzRzQsLhomDW/xDqD6EDFoFw3otx8iBiZWTVl0lXvYAgWF79wPliryw+LSitGHRd1G4XuB7179x1+B9MHJHgqwsLCwiQ/lh8N5YfABLfCsb4fCwAIXBBF737dsEcpWiabWgYGxXufUDA+H3wAPYfbH/AGvywVTlKdllc3Nvo1Hr1Y3H3YpVQgDuLk+4v8TisszEk9TgAJnmEsjOpAB6ai1/ibYq1kfXHyMmK8K2HQrLNbbHWu3/AMTf44fmk94/95iseVvTEgqga3Fwd0UfXI7n0GEMnzT5x/dJhua3nH90mIazv4Y/kgxNCXJUJGTYkXVQAB1JwALmnzi/3mH5zWYBoxqFiQJL/LCvHtZbi1wdEYv274e8QBZ1FgQNGmO7fcOmHQrTGBsAzsukg6QDJ4z5D0xNZCQXlddDHYDmXYgfV9BiHNiJBZCwAAtojAsNrbDphNKjG5UnoPcj6Dt0whkmdmIDPHqO8TAuEIv0Jw6SWPLkK9dO5cHr0N/39sQWWIDSUOnrbRHYHzAtieqK4V9rqSkhRGDKO2wwAOVsSPHtf/pL/jhBLkCzkkgAa9yTttiF6ffxJ/sx/wCHHOcZ50mS5HPJTOgr8wc0FGyooeIFdU0y+EG6rsD5sPLABh8X8cvRy1GU5BMwnTVDXZgrauW42aKkPS46M33eePOqSkqq+WV2lVI9ReqrKp/o0J3uzt1Y9h1OEtPDTWNcCZLBlo0bTKb73qHHuj097/D1wXDHLXcuWsmjosuj1cohdKeqUkK7k+bWPqSes0jPORDMI8pjqtGVzVU9KsUQMtWiI7zafpCoX6t/dwdLJUtDlFGGZIZaShLKqW1s5IV36FrX8Nz8LXxMtk5qcxqMso2WmpaKB4I688/6fmRxNMyN4SDclQbj07DQpoaeoyv9I1AmkzQ59SQGZ5iV5J0NoMfTzN8WqLObmmhhG4FbTQOtDlsE5pqypcl56qRCfCwWzsTa4QWUd/tFRVs0R9lyeKWDn2iaRSGrqu52DyJawP2VsB69cWVcchps4KISYs9qGkIF9CtGUVntvYnb+dzDS0cSUea8PzySyUaRy1VNVBHqY3VfHIIwN066rXsPTpYoHKnO92Z0NEiZjDSZzJNQRuWaeVkEjIGUlWNrixOxOLaqOtyh/ZphHV5bUfSQhmvTVCD68LLfS47kG49QbE6kny/Pamrqc8qUgaKCKOmWNxBGsY1FmW9ySD2vvf7stP0pRU/OkpWfK6prBapfoJxuVfSDqViN1YWPkfMcBRb4Zv8AB0SRcQf1czmGqySWpRXIWRVeWMhHK7Ei3X+QTnVOknFmZPKA5p6DLWgV/HpLpbV4u4t+OKuFhBLn9CI0YQ/6MkxrKFlZV5qbElbHvvYYlnbrBxjNHYBajL6SEWUL4uUHXYADtjNk2Z6Lof8AyAc0NQZKGOhSZ8yST2iN6ceOCKxUln2ADHsT2xRVZ1xbCmieVYLjSXgSlEnwLxXIPyGJ51NVtPS5bRq5eqWLUkez1EsjFY4yV3sLX/8ALGhTcM8O0xEWZ5hFJW7B0WrjgRG+yiqdVvifyxmlNI6kINmY0/EmT0GVSwV6QxZk0lUq0TK0807kEvUlgWdjcKLkgW02236GozavzWghyGvy2ejzDMlCy1Eip7KIYCJnmiS9+ZsAF7Fr9NjVLwjHC9PVZZUuk1O8c8MVZaaByjBwOYg1WPnvirNF4wrpqAU+VrRvRySTRTpVRSIJnUIXMht4bbW03PfFWtPg1eU0twxoc5yaj1Us4zGmpoy3s1eumojjUXPInhtcD7JX4eQx0o4+JzNXJQQZeusxyVSSyyyVEgA1FYfDHt0LH8bXx188q0dDLVVjoFpqVnqHUaUaTRayA/aOwHrjG4blC5ZS0U6PT1UXNdYahTC00MkhkWWISWuN7G3S2CMticsaujOHCs9MebQ5tPFP2Zk0XPkWhYG3yOCKPP8AMcvq46DP1VS9uTWqBpYHYNIVFivYmwI7juOiZGGxBB9bg/LGNn1ElZldYCoMlOjVUJI6FBdx8CL3+GLYTM+TEq2N8m5OwHey7j5YnE5Qm/umxNuoI6EA7YwOF6ySryiESMWkpZHpCx3JVAGQnv0IHyxuYuMdDtp1NpBC3OkHqB2w2FhYBj+WHw3lh8AE8LEtD/q/tL+eH5b+n7S/ngAjixQqDW+5+ov8TiZiMIV5dJZhqRFYNt5m22KiSxJPU4AGLMSSTc4bD4exwANhX27YKDmZgrNDEFS1zGvYdz1vis6QWHMiNrW+i2P3jD3FZBbABn6H3U+36n088RJLG56n+GwAxNtLEs0q3PXwsPu2wwRD/wBKg+KtgYDBSxsPiSegHmcSLKBpUArtcsN2I7/DDMwAKr7vcnYsfUeXlhKBa+3W34E4Egsa5uTc3PU4Yknr5Adv4YfwiwIuSASb+YvheDzI+IBH4flgFsiOFixIwQHbxR7gaCNTkdhft5nDExjrGw+Ln8sIfPBC3p2w6sACjC6Egm3UH7S+uLY9G76dKrcXaQ2N+wsL4RMDWuRtf6z3+Hu4YbkGhlFrKWVgGRlFwynuMea/0iyTfpbhmmZWVIqZZ11bXaar0kj9kY6ziziODhujpjFElRX1rSLRxyO/JjSOwaaUAAkAkAC4ue+1j5hmbZ1XTZLneaVdPO+bOpgSFxrp4qedYxG8SgBRvdRv19cNIjKVIEZII3zGqkiWZ1zCaCJJT9Cp3kMkii2r0F7fHpi1Keeq01tfO8UD7LI6hpZlH1KWHYEDz2UfgSKeNHqAjqrI3ElmVwCrDSdiDtbBgy5KrKqjN58x1Vethy3ZDuH0LHb3r23HQDyti+MbOdmy6UCNMpjNPSxcilJUuurXLOy9GqJSLsfTYDsMaVKFXLY2YkIud0zt3sqw3Jti1abJcwpaUZaDTZlBBFHPSzylvbpAPFJC77aj1C7eXxjSos1JPl5kWGrFYs8S1H0aSMsZiMJdtlfy1bdrg9dMYnGzTtj1bVlBmVTPEzRmaWeeF1KvFPTyuxBB3RkYHcb+R32Ekjiq3jmy8+y5ijBxSxuUV2G+qicm4P6hPwP1cVx1EtNzKGtgaSnWRubTy3jlgk6F4GIur/Kx7g9pzZTUCn9uo29qoTc82MWlh0m5WoiFypHexI738rKM9lbezV5Ky8ukzC5DOyiKlqHvYiVbARyetrHvp6kmabOquk/R9cVpKHL3iWpmkh0yhkUiONd/G9j4APO5NtzVDLSZm6QZlNyZiCkWYbEk2sEqwdiOwa9x3JHS6sgq6CaDJs4XmxARtRyQyBpadZzpV4Sdip+shHba3UwJpGjwjLHUcQfQxFIIMmmpYFdlaTlxvGA0jMpGo3JNh+7eri6OoPEzJAp9oaHLhAF03MvLuoGkAdfT074XCUfs3ENbC7qeTSV0BbcBiksa3Gx8sR4uErZ7VzQE6qeky+o1x3PK0IpVzsDYG29tsc/qNmek8O3xfcqneWvnyKso5vZ5qp1yuaQbtSTSNYn0JBbT5/LHUDgzh0xtHoqxILj2g1DNKzfbZT4PwxTVZBDxFRJnmSTJTVNckUtZSM2mnlqo2ux1LukisDvb121XMoM/zjKzyOJctqowraPboo9St+tIU+jPxDA+hOObkk/lO7i03UgakOYcL1kNDXS8/J6yTRS1JFhDKegIJ28mF7fWGOlqIJZEKxVEtPIDtJCImO21isqspGIyxZXxBltRDFNHPTVKFEkTcxTAeBiDZgymxsQPxxm5BmntcQy+rYLmlFqglRus6xHRzI/M7eL8sUXe/c3QaXw9gau4czDMNArs+q5Y0YNHGKaCNFYfW0IdF/W2M/iWizJny2bM545stjf2Vqilh5UtO85C86VSxBN7dwDa1gTjtGHTGTxI0CcP52ZrBXpHijv1aZrBAvrff5emJQyO6JZMUdLZxMOYZvw/Wz0k7u8VNMY6qnYs0bIOrw6rkEjxL/njtKpo2oa+W4MbUNTID1BVoWIP445LiqF2lyeYLeetyaiDAXu86jlD77gY6qsp2hySup+rxZW8PncpCFP7samzLGD3RncDRq+WZlYgOMwUXvsNUEYCvfpfex9MdIQQSCLEEgg7EEY81yGuzmhqpXyynNTrhBqqcoXjkhB2LgEfAW3x6BlWbUee0zywhoaiBljngmbU8LG4VXfup+o1vQ7jGlM5sotOwnCw5BBIIII6g7EYmoDIQLar7H1PT8sSIWQ8sPiPliWEBO2JADZj07frfD0wgBa593sO7fD0wiSTc26W26AeWABXLdf8h6DEtJG+GHXB0lXE0EcYiQsLA6gCot3FsFiAfhhbjE9YvfRHb0B/icIsOyx/cfzwwJmnmEaS2GlxcHUB+/FehvT9pfzxYzKbeKAj0R+/XriIKAg/Qm3YoxGEwRJYiLMwF9tIJFv8R9MWqatgCGWw9YRigW3JkUk7klW/hi1IYW/6ZDa3RH6/MYYb2TaKpa5J3Ate8NthhCCcBmkJtYaVQwhmJ73Y2ti9IYlCl2RlN9IKNZviPLEZI0clnlUk2v4G6Dt06YARAKbMX127b07MSe11IxD6P7cw28oD+JOIGKEEjnx9f7uT8sQaOIdJkPwSS/7sBHsWukTkFpJWPTblA/AC4wjHAiku0oUWFnEZJJ7KAb4oKR7WkX5q35YkOWoJLq/YR6WsT5sW2sMA6LSkD6DedVK/Ri0YW1+1zfDCCA38Uth7xPL0j4m+IgC/MdRzLBrPvGi9ncHf/CL4YuWISNEsT0Krdj3Zj0vgGed/0o0fg4crotXKj9roH1aLiQkTq3hPfxX+GOIMjvBw2je7G8gW3l7WBf8AhjpePeIaPM5qTK6Bo5afL5JZaioiAEc1WyiPTCR1RBcA9yTbbrzOyQZI53CGZyF62Sq1EfHFsEZsktwpzJElZLGzLJHnkjowIurKhIO+LooYK4K8SCnq2JGgkR0tW3fku3hVz5Xsb7EdCziJefzl5uX11TJUQ1VPfXFKb/VY21AbMjW9D3xpV1ZUHKqHLxSxSU6mIx1lOXkjlWEFQFS11bfxgm/yONMYnNzSZZRVOVrRPlOZ0RgeOeWRK2GL+twzN2nU2YgeX4YsmCtyoc0Iu6f1PNYPpVlQbAS23dR07Mve9tOAYp0nRIMwjmIRQsNYkTtPAo6LID76DyJuOx7YOooqiCppqGoWOfL692PgJannCozcyB7XVxYb2BHcW2OiKOXk3djTFkENLmqs6csexV8BErpEDtofpJGPskgj0IsZU8Of0Qq1y+eNoKuFoZJKeppeVPCwtsszBh+yCP3wRhFTu9N/Xcqaz1NLMbTUrkW1MU3U+Uiix7j6uBJ6NDE1VRsZ6RbGUsoFRTE7AVCLtbyYbH06Yk0QSaJfonNLf8XW3Teqo+n+1xFqGvhejmqIzy2q6WIOJoZhq1qQpMTt26YNmo+HkyWlqkqQ+Ys8Jlh13LDVeVGiA2AHQ/ntoZ2tIKisWkhp4YVznIRop0CRhjSaiQF2774qlsSiyfDQYcVZxYyA8vNASrIp/wCMJ1LYjxPUVFJxG1VAzCeGnonQyFXv9FYo+nwlWF1I8icT4bW/FecC8K+DNN5raR/WU88VcWoRnlUDyzalo7GK2gjl9RbHM6p7npfC98ZuRTzZFBDnuTQ83JMxWnnr8uLECllcBebA+5G/hbqOg6WKdll1dQ5vRLVU3jgl1pJHKo1I6nS8Uqbi47/5453hKJZuHKWKdA8MrVcRUi4eF5nUj4HfFPCAOV5txJkkjnwyLPThz74jJQuAe5Uxk/D0xxpS1NrujszjtaL8yypeH5/05lcfLobquc0UW0XIY29ohToCl7kDte3ljJOVZHV8QcRGtnEfLkp6mnC1Psw0zxCV51kBBuL7b7dbb49BqVhkpqqOYAwvBMkurpy2Rg179rY864ay+jzSSsrswjSoelWipYIpgHRQkCqJWRtixAAF/I4UZbWy7p3ri77BGRtm1acxY51VvQ0tS9LTMogaaYDxCR5JULWtaw9cZ2Z0c0+YTZRWzVuYVFSaUZZPJNpSkikJaaSSJLJcKCLgb/PGrxABkMdNX5U0dI1TMaepgSNDBNpTWsgiI06l6bC+9t8E5FltYizZrmZdsxrbbSW1wRG1lYDoxsLjsAB8ZKXc2xcWtwXMKWOq4myOLT9Fl2WvWsvYWlKRLb42PywTS1gnzHiSjbc001PoU73hanRGNvje/wAfXEaKRanPuJ5Qb+zpQUCHyEQcsPvv92MjMYBRZzm+afpGOkljpIquljkQMK26cuSEi4JBKgWG92B2t4rk7ZKqVmxR5Tl2Wif2KIx+0urykyO5ut9IBboBfbGZlCqnGWfxQACNqGRpwounMvAzal7i5Nx8e+C6nNs7psuNY+SNHKEDtqqY5EgvazyRKNdh3F9u5wBwMRLV8QTyOHq3jpmYsRraN5Hd3ueh1ad/zxoxNt7mTrNKjUUdjJHzB0sy20kn7g7HqD9VvkcDAlGIYEbFXHcffjQZQwDDr4rXW/8AiBU/9pfn1wPJGHv2ZdIUk36+6rMex+ofkd8aU6ORyDsQWJHQm++3Xrh7fzfD6diCtmUkNtvcHcEfz0w238jEhWi0kk7/AC8gPIYWIVFVT0lPVVdQFSnpYXqJ2WMuyxoLkhQbm2M7KuJeH87lngyycyywRiaRZad4ToLBNS6ib9Rf44iM1Bh8B5pnGU5LTRVeZSCGGWbkRGOFpXeQKXI0qegHU+uJ5bmuX5vSrW0B5lM0kkStJCYmLRkA+Em+AAtSVIYAEj7QBH3HEtR0/V1X6aFtjGzHijhvKKxKDMKnl1bJDJoSmeRVWX3dbg2Hn88bQ0735Yt2Avf1GGhPYYvcDZfXwjr92JGW9vooRsBsv49cYubcU8L5JJ7PmFWvtYW701LC080d9wJbEKp9C19+mHyzinh3NoMwqKFpDHlsJqq3nUzI8cQV3uqgkHZW2B7euAVmxzf1Iv2cGQTIwF4qdRY3IQ7n4DGNludZVn1M9TlzloUnaAyPC0J5iqrEFWvtYjEBneUxZzBkLzuuaTKriJoX5WgxGe5lvb3Rfp6d8IkjpCYm3Ogk97P+eItyO/Lt13WT+BxjHiHIUzhMhark/STIriNaabl6TD7QPpOnu/lget4n4bgzRckqMwMNe0kEel6WYRap0V4wZTZdwR9+ARrs1GW6RddyUn3+Fm/hhj7MbhRB6HRNv97YDr6vLcso6qvrap46amEZlZaeR2GuRYgNK79SMCSZzkceTR5+9a/6Mk5emUUspkOuQwi8QN+oPfDA0fov1Dbr4JD/ABw6mAG94vQtHIwU9ja+OWTjrgl2SNMzqCzsqKP0fOLsx0jctjpiqXIMnQ/ZbCBDO99hfTqLHV7zMfrv6+WOb4yr5cvyGpEDsk+YzJlyOnvJE6l5ip8yo0/9Y46XQtwBJct0Gg3xynH9OXyBJojr9hzKnlmYA2CTI8Phv2BIv8cTgrlTFO9Lo8xNHTJFDV1JMVM4ZYooiBPUFCVOi9wq9QWI+AJ6SWDMMwgrKqnpLUOVRRCYQ2WOljmchb6zrJY3JO57n00aeopEbIpa6HXTLQ1CLZFkCy+0TWOltjpvuL98Fx1VDyOLDSQcumqFojEr2BRTNpJ0r4RffbtfG/ylych5nGNSRhUk9RA5EamRZrRyQOpkjnHXSyDqe4I3HUY1IDAhmakrM1pBYPPBFBLLyrbeOWN1uOtiVB/eRsszKpyypgzAUuuImaJC6sqPcaWEclrah6XtjcpuLK5qjM+Vl0cs+Zv9FFEXLBhEIQCoF2Ftz0xdGKM+XXxpI00taJ6H/hGtqqerpsxOmUyoDy4ZoyGjZ2HUX64WTluTRAhrDOQd+l/YJcRpZWjmyunGiSSgos0etMLa4oOas5AaQeDa4BINrm1ycD09bNBlqyxFklizaKSNltdWFM1jY7YsoxyjLfYMyvKql8uqs4hrfZ3o1m0gKCNMahmWVibWYbAFTf1vtXEJJZY5qJHoc0AuKUjlxVWobmm5mwLd0Ox7fZxFJoaqSnlpIkhrg8czUJa1NVtG2sGnDG19t0J/w/ZxtpVUfFdVKa4rl4oKcoic1OYzOxLvI84B0pYeG19+u+E7oq+Nb0c7JUU95FkyakEl2WZdVdGQ/RgY1mAHwsLYMaZ6ulqKl4tDS8Q5USkYOhQIWUKuok9u5wqatoMwlWlzWR0f+xpczSxcWOlVqw3vJ5E7jzI6FVNPPlUNXQzNFLJDxDk/0lO+pHWSB3Bv2Nu2M+Sya13sgnh4unFWckAjbNR4gD/6yvni3PaSrzLiH2OAA1FVDRxoSLKgEd2ka3ZRcn/PDZBLzeKM7RvAP+FGvu3SpXawx1eVU8TcT51OSGaHKqCOMlSLc6+ogH/CBjj9fLTFs9L4Taxtv3NqiooKGkpaOG/KpYaeFCerBRux9TuT8cZWd5I9bPBXUE602aw6lhbXo56puFuN9S9AbHY2O3TotP8A+P4YDzHLqbM6Z6acMPGJIpE2kikW4DofPcj5nHnFkd2diE6aZyhq+JqialyzP5JaKgqZGhqqhIkhM40lhEKhLpZiACRbY+uM3NhBw/mjHI6tlU06mdAwnRG1G8Tar37EAkkXxOPKKqozR8sqJ31QtLzZGZpPoo7G6B7je4t8cbcvCuScrQntKSCxWUTFmDA3B0sNG3+HGiOX1OzLHiwONvlXSW2/cGipp0h/0g4jkaaajgM1NTWVYqUdV0oo08wkgXttfzF8aeXT1jUNNV5i4WWvnjMMCCyQJJdo4l73sLsTjIzJ84ra3LskrOTyJaiGaZoEKiqhivIWbUTYbG4HfGjxG80FBl9TELimzBJdI6EhDpH7x88ScthLC3KEHVy/Tsczl1amWZznKVjaI6medJHIYhJFmd1Y23sQetu4wXnE+W5lVcPUtJLFU1K5lFOxi8axQLaR9TdOwNvT1xq1OVZPnSw1p1hpo0Imp2Cs62sFcMCpI6bjtjJp5cpylq1aDKcznrIrxztPpMwU72LAswU7dFtjTF27LElJUuTWzqpipcrzWaQrZ6aaCMMQNctQpjRBfvvc/DHHzVmU0UGXTZQTBmdO0TBljZJAmnTKtQXFmDbA9b413rIqmpyWrq62nkaWOdY6ONbR0E7BbF9R1ajut2sb9BY4KzGihraaeN1BkCO8LkDWjoCwseu/Q4sU6ZZHB5kG2bWT5nDm9DHWxqElB5NZACbRTINwpO9j1U+R+7QZQ269fFfa/owK/gw+Yxw3A00iV2awg/RSUkE7De2tZCoNvgTjuyPrLuLAFTt06C/mO35dN8XqVnmM+PypuJRZWPiNmGgBidQH2VY9wein5HpifKk/1f3D88TKhrEHffsT16gqf+0PnhuX+rF/8ufzxYmZZIxOIP8Am/xN4E/5IrPq7jwjpjzDIHORVnBWdmwo81WsoKu+ygpUPTsWPSwBjf5Y9X4iEEnD+fRwQzNM+U1cYVLkvIVACqoBJOOFGS1Fb/RxT07Us65hl9RU18MMiMspIqHV0EbDVupuPPSMRJj8ZFs4zqsy5Sns3DOQZjX1QUeE1Tw3sd7XBMQ+Rxtf0eNEvDFK0ugRpVZhJMzD3YkIdyT6AHGTkmX5ieGOOMzzCGoOa51TVqhXR1ndI0sv0RXVdmLfcMU0r5ll39HVRSR0Vd+kK+rqqFIlglMscMrq8sjR6dQBUFQf1vTABnDLaniug/pD4naFjItRHLQEA+GOBuZIg/wx6Rjssn4gkk4LkzhQjVmW5ZUROWAY+10yiJHa+1zdH6d/vxsp/o8y2XLculr63OIKmeBJquGCSGOOMyHUUCPGTcCwNz1xXwll1VRVfGHC9fTVn6Pq46qOGp5biI6LwF1fToJZSrD/AA4AJ/0f5NltVRVud5jTxV1dU1c0UbVgEyxaNLPIVe4LsWNyfL1N+vrqLLKXK+IpqWipKeebJ8wSZqaBIuYqU0xXVostxfbbHB5VU8T8Cy1uX12TVOYZbLMZoZaUuqB7BeZFKqOBqAGpSAdu3fqaLOq3P8s4rZslq8vgiyerSj9oMsk1ZPLTzAqmpEBt4QAAevrhkXucbwdxllPD+WS0VXQV1RJJWTVGum5OgB440C/SG9/Di6izmlz/APpEybMKeCangeHkolTp1jlUMqXOjaxx0n9HFNNTZDUx1kM8EhzSoYJPG0TaDBAAQHW9uuBKylqW/pMy2qWnqTRR0sStUCJzCCMvkWxkC6eu2AW1lM2kf0r01ww00sV/P/krtjO4gyZuIOPs7y2KQrUSZbDLSNsFaohy+GVFkv2NrE9r37WOtJR1Un9J8NUKep9iFMie0mOTkBhlZS3Ntp67deuL4qWtT+lCrrFpKo0iUdvaAj8kkZaikCYro67fHAO1yAT54+ccA8SU1bqTOsoWjo8xjkIWRwlZEiTlW3vtpf8AWF/rYhXIw/osoWJWxFEdmF/+PS9R1xZ/SFw/XmokzvKaectmCLRZvT0ymRpD4WWXRGt7NpGrbqoPVr4espapv6NKOkWkqTWD2PVAI3M3hrJWJ5QXV0wDVMz+H+IuD1p8hy2Xhzm1/wDVaRqs09CVadpNAlLsmva9+t8epcmYsVXSzXIADpvv23x5zlPGGa5XleXZd/ofmkzUlKkBm1VEesrcagopzbr549HYqqBEWzMPG2rUxUgHT8MAN0WezyoosVCMPpJtSAMOuiO5v/PkLEWtpKKtoqylrtIpKinniZFcHSmgsZCU7ggG/mMXPNK8aRHdI7EWFvTe2BamPm01bFHcPPR1cS/43hZBb78NLdEZPsjxGi1cqrpiTJTmjqKkAj3KiFQVkQjoex8wd722UTsKLNwCwBSjuvY/T4hlqSu1ci3umV1zOO4CoAcVxX9lzaxuBHR//Xx29FROdpt7mp7RNW5TwzlgkcKMwro01bpGXdLsF/62FHJBFAxVpKOglLRs90fMcxCmxUHoqX27KP1zgagJ/wDR2zDfNakfjDjQyOdKfMOGpZFgkVaTMxpqI1lj3kqDco23Y2w4x22FKPqCieqrbUVFAIaZby8hHtGAvWarme17d2Y2HYDphTTU0UCUMDtMwn9pnn91HkCcsLCh8WgDudz5AbYGpGJgzohgAaOM2+NXCbDB8dREOGain0wc1s7R+YY159vZ725nXTsdsW6TO4ILoZaRMn4kE1PE8xpKAwSSIrSxkzlbwsdxvucSlo62VaFM3ppYKqrKQ0NcwV+Y5sFhrVUknqLN7w73t4cuMt7BmnjB/qtDYentJNr46LM6fPYZOEWrsyhqo3zCkEaxRCIiTXEzSBh7wsQNX54r07FKh2sy6TLqaXKOJK6eSdKrLJqKKGNNPKbmyctuYSNXnbfthqRrZU50nbiTKB6bxSYpR5loOKVEpCNXZYHAOzfT1Vr/AHYlR6v0Q9mH/OjJB98MuM047F0cXxUdBw6xPFeeix2/St//AJpMdPDWrl/Ec00htBPSUtPOd/CCAVf4A9fjjleGr/6W8RAte36W/wDvEGOlqqSoq8xqooIy8jQQg7gKqhLEsx2tjz/i0tMPyPSeCYITk4T2W53SlWAIIIIBBG4IPQg4RKqGYkBVBZixsABuSSccjDT8VZZERA6vEix2iVxMFFt9KSAH7jhN+ls3y2vqqivSOGnMwNOsYjjblC55puG+AOPNKSfB1X4crvzI6bSte/sVQViVXE3tMBvHK8sII6MiwadXz0g46ZxjDyGmqqmSHMaiJI4qal9logsehpQdjKw77bA9/wB+9LYBmJCogLOzEBVUdyTtiyDL+unDzYwh8qS/IzatIxX5JK3vg1kCHa51Ra7fgcFVdLFV5dUU8gOiXa46q3UMPUH+d8cpnGbipqqV6R/oaFtcEm1pJCQS9vLsPT443YM/yuSgDzu0EtwGRo5Dqbr9GQLEYu1LguzdF1GPHiyJP7cre0YWVNWZbmByyY3SQvsPdD6dQkT0a2/+W5ecxmA0maQ+GalmiimttzKaRtBDW8r7YbLh+kcwq81ZSkcVqemXuPAAS3qB+/BWcFRlmYXF9aoijqS7SKAAPPyxqh+E35nfURT2bpS+r5BM1ymlzCKQ6FFUqsY5VABYgEhH8wfwxlUla36LqZJWLSUqvDdty2pbR3797fLGvHR8UCkC8yiD8oqBIW5yqR0Lgab/ACOOWnSeBKmlkVoyrmSVSbHmIukXPTbqMTnJqm0a+kwrJqhGSbXodLwfl8dPQzVrby17L8Vp4iVj9fEdTf8Aljpd1Ox23sfMfD+fu6BZcnKoctQC2ikiXodIsgLbHe32h26jBoYG4PkLi97dwQRt6g/+WOtBVFHg+pnrzSb9R7W8S7i41C9un8fL8js/MH2H/wBrHhgGBuL2FifK17b2/n5HaetfT9oYsSMsnFbNgY88K5vck3877/fgPM6ialyvO6qAhZqbK8xqYWIDBZYqd5Eax22IHbF9MZJaekcnU8lNTu5sBqd4ldjYbeeES4LL73ub+d9/vxMBjcgsDtvci47b4xas5nPnkmX0+a1FFBBktJXgUtPRSmSeWrniJdqqNjYBRsMaVHT5iglFTmVVmDEqVaohpIeSouSFFNGgN+pvfp94De1hI0C3Vj3H+eHuzXAuAfqj+GMfPqzMaQU0GWaHqkgq86rF0q5bLMvAEkKg3OqVmCqf1TjoY1imSlnprS09RHFNE6bh4pVDKdvMHARRXDDLIwAZhfvcj8MWSUcigEMW9QCSDjAy5OJMwjzCqHEGYU2nNs4pIaemocrkhiipauSBATNCXOw7tg2mzHNJKPiCnrtDV+RyVlNNPSoUiqNNIKuCoWNiQpZWXUtyAQexwiVbBghmY+JZOh30sT8N8PyW020yixIFla1rje2MTh3M63MqSCOvQpmqUdFWThL6Kqlqow8NZCNhpbdXAHhZSNrjBVXLXw5xw7RKXWGtgzuSoTSDrNMlOYjc7i2pu+98OyMo6u5omBrlQz6bX3U2B37HbC5MxVFO4O6bmy97MDtbGbQy1lRnfE9HIWenoJ8ojpkCgcsT0CzyXYC5uxvvfGZw1mmYZjS00eYJpr3pFzCCRBZayhdrCdAtrMhskgHQ2PRsFhpfZnRA1KN0kBW47nY9bEYRLtuyPqY3LqCCb9cAVtTWQ1nC8ALLHWZjWw1F4wzSRxUE1QqAkX95QdiOmIV1VXTVyZXleiKqWmjq8xrJYTMtDDKWWJY4CQrTSWJUMbAKSQb2wWOr7GiyyA+Hmkeuq4xDRIAWKMFHU2IG5tjPfKc4j0tFxPnDy3UutVR5fPTMQblTEkaWv6PjXQkWDCUruLcs2Pazb9Plg5GykNZTa+ok/DfbDMNBTT7ykH7vMYtanG7pzNBO3guR8d/uwJXTvl9BmmYKsmqioauqS8VxriiZlvv52w1uyNeh5BXT0GRcTcVwLTGrhcV9DTxrM0XJmqCrBvCCW0G4t3xjsoo6Wqgnf+tVIgBgWxMCRPzLzN0DHso3He3Qxy+SomrKufVJJWSU1dKjoNUzVLqTqS2+okm1t8SK0tBfniKprr/2JIkp6ZupMxGzv+rew736DtY1KuSlpBNEpT/RkOGUvmU8qati0bNEA4HWxsbbdsPTFeZkFybey5ifhZ6nFK1BjjTM5S09fUTzRwPNYpBygl5AvQtuAg6C3Q7Wg88sEORTQtpkjp6hkbZrH2qUbqwIt1vtvfGuESEkHZPSCpy7iufa1JlsDkl1W15w2wJub6QNv44FUg5XL71/0nH0BJ/4s3liJGW1QEizRUM1/pYpUnenb9aBoldh6qenY9gXQ01UEqpKPPKeCCICSplV8wghXYhQ7CIAseijcnEqdWytxQTQfo8ZNxP7ROsVS9PQLSQyJJzZ2SYuRD4e218U0qxUIpsyzDmtIgSbKaJ2YPKUbUk8991hB3A2LW2sLtgiarritMTxoGAXbVJno5Y8xrg6fDEaTKqHMqic1vFuVQys3jkq0zAyyNbqzVMcf4tjLdRtijD0B6dg+U8SyMTqaryVjba7PJVsdsX0JX9ES7n/AJ05Db/Yz4lNTU1DQcX0tPXQV8MFdw+kdXTArFMD7UxKi56dDuenXEMvIOUSjz4ryD/6M+KclOLa9SUY/Fub/DJU8YcSgE7HOP8A71MegZdKseaVcbf+sU8AU/rRqTp+dz92PP8AhRdfGnE63brnPurqJ/ryDzx3SxkZvToNWoPA3iXSbKpJ2vjy/ju2L7o7XhkVLzIv0f8AY6Ijc27mP8MYlJltPUZhmdfKL0qVUghiY2ieSKweZ190gG4W/kTgnOMyFDBIkJU1kqgRL3j1XUSMP3Yw82qZeSMvgEi0dGi088g1aZqgKC4Z9hsfxx5bFtudXo+nzTVQda9r9u/+DplzXKJJBBHXU5lY6VCuLFulg3u/jjIzajrRLDVVFRLWUFPKslRSFVW0Yv4tCWVgOpuO2Kq3m5nldJBQZVUAry2VmSOFIwq6bRsxBsfhjeijlEFJFOQ8ohiSY9QzBQrY1x5IqMekayRe+6adN/X2OVmlynMMzpmp4xoSnYsSmhZpQQR4PQen7sbUsUcuWypIgZDKLhhf02xzEFKJJc1hgulVRmSppGXqyQuUaI9uliP88dFR1C1eTLMBYmTTIB0V1IBH8cTk+PqdfrIeWoaG6i0t/fe/36GZl1TSZe9Rl8zlLzGamJVm5kcgBt4ATcfDCkr4K7M8qo4LtDHViaZ2UrrkjRmVQG3sD6YqFbBTZnNLJHI0cdNHDJJEhcQsSX3t5998E5YseZZtVZpFGyU1JEIEZhYy1DLpLG22wv8AeMbYN7ItyQUNefIn+Hntb2RvnHGZ9GKjOVp4heSVaSFwu93I32HkNz8MdXW1UdIsYID1E7COkpwQrTSN069F+0cc5DFV0udZeKuOH2qaSrqZKpHeRJFdGFtJAsEO2wvvjXkWqor1Mnh03g1Zu6i6Xr/o6CB7jQeqBdLEgCyDSoLHow+qfl3xeRbe67Eg6dVhY3Nx1t3I7HcbYpkiDh2CkNa0qAi9z4gyn3fh54UUysVRtjdArFzc6dhdux+yfkdjjp12PHNu7CUc9L2PQi9yL79R94P8i2/6z/tNgbZdNrAgNbSDYANvZfL7Q7dRscLmj7cH++wcAqluZudo/wCguJTp2GSZuTuu39Ul9cFUYk9iy9Qq70lIb6lv/Yp5HFWYQGsoMzoUdU9soayjV2BKoaiFotTW3sL3wDHFxhTRwQ8zhhuXHDHcU+ba1WMBb3MttW222Ggu1uD1VPm0vE0q0NdHROvDdC8jvRwVnNQ19UAtpnUCx3xt0NNnCI8dZWpWyPKCjx01PRhEIACcuJyDvve/fGZV0eeNmr5nl02V3fLIKCVMzjq3NoaiWcOhpnXrqtv5YKhHEXs+YpPNk6VMtM6UEtBDWosMzIy8yUVLsTpJBFrdMIPqBZbm4GacQ5kMqzqshmlTKaCWhoBUU7UOXF4mKScwX1yGUnby+RnClUwpanLXhqoXyavelpYK1DHOuXzsaikaRCT0UlB/gwVQUkOX0VBQw/2VHTQ06EjduWoBY+pNyfjhvZZRnFPmkcqhDlxy+shYG8wjm59PIpG10u4Po2ESMGhfi1KHPZsrbKJETO+I5IqeopamStkIr5S4WQTCIud9AKAE2BO98atFHRLkVdU0lRNVLmdBmGaTVk+kS1U1RSsWkkVAFBFgukABdNvq7lZZSSZfBPGZVdpMxzKvDIGAUVdS9QFs29xex+GKKbL3pIM8o4pYxSVktfLl8ehh7GK2JuZG1tiodiy27G3wAM+koqmoyHhOroCq5rl2UZc9AWOlKhHpYxLRTn7Eo2H2WAbExW0+ZZvwRVU4kVJaXiZHilBE9PKiUqSQTJ1DoQQw9PXfVy6lejoMroSwkkpKKkpGZAQHMMKxFgDvY2xEcO6c9pc7hm5TGnrI6yn3Mb1E6Rxioj7CQqoWQ230juLkAHyyMLxJxuNYXTWZAu+q5tlaDtjKyfLjW8K8LSQVMUGZUVIlVlc7h9MU/iVo5LD+ykHhkHkb/Vx0tHlL0uZ59mDTI6ZlLlkkUahtUXslGtKQ5OxuRcWxTlWUTZXleV5eZFmko6dYC8YKq5BJuA2/fABjS1q5lUcEyBTFOmc5nS1VI+oy0dXHlc4kp3sNyDbSe4IPfBWXaUzjjaMugnNflkmoajqpXy6JItO3S6uPkfLEqzJEOdZVm8M/LnpjL7fGgPKqr00lLEwttrQOV1dxt2wq2hnlmirqCpSlzGGI03Mki51NU02rX7PVRAglQd1IYFbm3lgEU5zVZ9l9NmFfRrkslFRUT1TpVjMPa3MY1MFMJEVvL8ca4CkKeYu6qfr9wDbpjDqabifM6Wsy+rfIqWlq4mp6iWijr6mpaFrahEtSyRqT0BOq2Nrpt5AD7hbAMmvhO0i/Dx2+e2Ka6lWuoM0pUddVVRVlOF8W7SQsqgD427YliaEoVm6BCClursOwv28zhp0xNHz7lodJK4gsrpl1f0NmUiIg9MW0uSZhW5dWZlTGCSOkmWGWnWUGsto1mVYQLlB3P5baucUtNlvFPEVG3MjgqDVRwCGIysgroxLGEjuCfeA64DpaCVahhk+ZS/pOEkJA8MlFUylfeSAs5BcfYJBPYE7Y7UJbWUsDaN3yqlkQakp6ur55XflCZYeWZB1AaxsfS2FDPRyQpTVwcLEH9nqIFDSxamLlHjYgMhJJ6gi/Xtg+nnWpqGfmx5fnALRu8oWOhrWJ0vFVRuNCM31rjSe4U+IzOUvU1Dx01KtPm9LIj1OS1QtzrEPqozIfEpG5Qm9jdSw9y9TjFEQJIMhUhpq7MHUAOYoqJInlXsFleZgL+ek/A9MWBM1znnRUNHI1JQRPUmlpEZoKWIe9JISbljbxMTc28hYdLxBHmOdNl0+Y5cuQUGXwsk1VWMJppXmYOY6eJdLuwt9GgG1ySwBuKKbMMwmy6qocoZMi4XilaLMcxn8dTVOy+JZ5kGqSZh0jjAABsSFGrEJ59tluCRpz8T1/Eua8KPlvDaVE2Rk1klNEwkEiBVBCuVCoot4Lg7262s2HnFTVcY5zWZhS0UVFBDBTpVS1EgWCliS6Cetn0gXO9gFJNgAGI31oa2TK8reKneoybIqn6QSoE/0iz7a2tHPgjiA6NYADYcwk6hoY6GRaSo4iByzh6JTWZbkNEH9prx7omcMQ9mHvSyMC3RbA+HFCSg7ivp/wa+JGFV1WXQUcuV5XzJopZ4J63MKhSktXJThxGsEN7JEupiL3Y3ube6t+XL/wTLv/APynh+/zhqd8E1dBRV1TLnNRSjJMmq5I2oKGlCvWVaBQpFFE1lCta7SNZAW212sZwx5nmk1FSUVJDRZRQVUGYGBJAsMKLINVZXVUoDM9gRqb/Cq2NsSnkjppFuPBkm7ijV4TH/ptxPunTOvfBIt7dH1tj0BBUmvqDRxxSTrTII23WKLULa2v+GOI4SpzLxLxDXRBJFqmzJ4GUeLlSVQkBKnexFjj0Wgcw1tZBMNMk0dOyFrAkqp8P8Rjz3jGjLBJ7b/2Ongx5ellLUt3G/taMqtikpKOUVlFrrJKmGU1wZXDEMpAZ/eBFtIFrYy1rqgIaaVtVK1YKqaPSCWPNEjgt1sfLHeTRRTRTRzANE6Mrhumm25xhZLldA1GlTLFHPNOXctKoYKuoqFUHbtvjz2XFpaS4Ov0vX4lhk80N7/X09DbieOVEliZWjdQyFbEFflgauq46RFNtdTKdFJTqRzJ5T0UDy7sewGOezalehqkXL5ZYI5qaqqnihkdVTkKWZgAbWO2IzUlPl1Nl+dLVyVFUrQu/OlDrOJBpdFvciwJwR5M+Pocb0zU7UuFW/0f3Csmyipo5pKutZDUTjlhEOoIjuHZmboSTb7vXA1JNFQZDWSv0kzGpFMn94VfQAPTY3xZX8Qyui01JRVUVVOqorVACsokHvRqO/kfn2xn0VK2YUtQ1VOIKGhkVXfUAqqgty4y2w8yfh1JuJzVpJHVjjyzTz9Xsm47fS6SRTl7VksVYk9VTUlFVuz1FRUMgma9gwpkJ1XPQErYeuN+nzPKYKf2XKaSsq46RBzPZIwqRruSzPMQSTudgScVUWXcOzhfZoKWdL2Zt5HFhfxF/F+7FVfBPk8NRPlbpBHUSRwVEbgMiF/o1lQtcgi9jjanp2IZ8mHqsrhTTbVLhffl2W+xZNmyR5hBzhI5DLMksizRuh6EEkAjytjGqDmFBn1C9TMakuFRJXC2anlJiKMoAGx62wfkclPQvmeXzVlKTFOssbrKvJkDRjVoZrXItvgGtnXNM6pFpiZKem5YLgGxWN+Y7iw6E2Axou4p97LccZRyZMbd41F7vsmrW50qutgVJCja7bmEnfQ9uqH8P+8pYOYC6gK499GtffuLefbzG+Bkd0bULdwQ26kdwR5YNSSIiORdYVBoJLX5JP1Xt4ih/Dr169dHiGUxy3PLk94EBWvbUV6AnzH1T8jcdCLyfal/28X5YhPDzdUiLaRT9KnVjfvcdb9vP47YG5Mv90/7DYNhxe25MgADfcjf0w4HQm9vP+d8TRYmb3n9dh+eCNENrant/hH54GyNWCDqcS6YkVhDEapLf4V/PD2g+1L+wv8A4sIYwJxMXN9I6bk9B95wtNOpBZ5T5oEW/wAzq/DDkwG13lA8hGoA+A1YAsXhHViT5KP4nCDAkBUW5Nhe7EnthaYNrPMTewHLW5v021YLCUyaOU15ehPUrcb2ttfAFFsMfLFyFLkb2UAL6fHF2IJYi/QdMT8J6E/dgGMRiDWW9veIsSO3oMWEqLi+/nb92KyAfdNz5EWv88AAksWvYW7b+WBWXSxHcdMGsSlzY9CPhfAjOjHxH4MBv8xgFZUcNh2BUgEgg7gjofhh1Vbanvp3AANi58h6eZwDsSrtrb3ew7ufIenmfzwtROosAbi1rCyjsB6YizFjc28rDYAeQGHB9cAHk+dStB/SNzyT9FnWU7jeyWgXa/p0xm19FmWf8T58mW00lRUT5hmM6RoURuVFKQWJchR279Tjp+Nct9jz7JM6cFaarmoDUkAkxyUbpckDfxIAQO+k4xKmGvy7N5auGV4HnqKmsy+rpJfo56eWRmEkEyeEgg2YduhAIx0ozS+Jc0ZZOpAZmiry9JnyywVsLGBc05TtVRMng5WZQga3UdNVta/rDw4vJzzLlp6KrpsurYY49WXS1tNBXwtTE9aKobrH3tfY9lO2NmWoo87Yy5uYYK8RhRmcEVllsNlr4EFj5B1AI7ggY38myqCm9py2veB4dacykd+ZGJXCkTwsOhIIsRa99+mMmfrY4Y3JfYqll08HFQTV9Q6RQ5JkUs0jaY44cnp3kcnsoG/89uo1WpKx6qkSeCDNM3iVIaLL6OKM5Lk6lrsBDFaKSQdW30A+80h2Hp+X5Zl9EspgRdRWSMuQNZGrSQSB6WOChS0URYRwxRBvf0Kq6wPFY27d7Y4E/H1dRh+9/wDBuxYZSjctjzqtyHM6SSKtaCXNs+qqj6OWoUTU9K+kkOkclkkkUdGYBF7A6dswZUtHPNV1rpmmbylpZJaljNQUkltmkLn6aUdrjQPJu3p+bSxx0qhiwR5VRgpsXBBJBI7eYxzWY0cFKkeZUbw1lHHIjTGwIicEHTOg6KfW35nR+JZs8KO/4d0HTz0vKnvx6N+77HLLk1VVFc0zKqqRE8gaetqQZJal7EculjaxY293YKLdgMGclZqaCIN+j8o5qx0qWM89bMSIucwupci/iYkKvRR2xqVWZ5PWUxzTNqhKmoVjT0GUQMyQQgGwM4B1FTsTuL9N7bc6a6auzCgUvrmnrqKBSeiXmQKsaLsFHQAC2OlKM5rc9P0vl41J6VDT/R+18v1k9l2Xc2eGYvZc5rYNCymGGqgQEbNIkyLq09bbX646Kp9oqamYI30pWImR2CBCLeNm6C3X5Y5/JQY+K+JKZ3OuKfMwCdtMbVCNrAPex2x0aU9NXZjWx1EnKTkxyKFZVJJ9WBG2Od4pj/kJe6OR1fUxy9b5y40L90X5lm0c4XL6OYXnaGGeqO0ao5AOk+vc+uM6StrcinmooZ4Z4gVkUOh8LuLlQEa9/S/fAYngiqJ6UUsGYqJVSEMrc1/FpBRo97H7sbk02Q5IqN7HTjMGjWRoYfE0ZIuS0jA2Hr/I4+qU3bG8UOm04lByUt623fr6qvoBVPtkWXZnmeZHTW18SUVLEQFMUDHUQF7Ei5I+/c4r/Q9B7KOplMXM52ptiV1XA6Ww8uZRPNK+dRJdoo3pIolEqJFJvoS2+ttrk/wxm1iVlLBRoZ5YqeqVY2jZzoikO4RvTcX+eLEtzTgjkS0uWlt37VXC+gRTS1NRT5hmFTKZp4qd6aB2tdEVL7W+OK6apVaDKadYmm5WYS1FREoBMjXOgkHY2G4vhsqmQ+2ZfMCrlmYxtsenLkQ+oxY2W10FJP7IInmFQjwT80pPGoQjToItv53xNp7GrJLEnKEuLVflS/Wy5s2mauSryyld/ZonirFmAiaYO2oIQLm622PrgDN82zLNaekEdK1JQVFVDGZC6PI7u/LBYDoBvbzOJ0cf6FpqmqzGdBLK4lKBrligOmOPVYliep9fIYy8pSurZlaWfmZdRTGoRU1clqpwXEalgGPLLHV5EY3Rh8zMTWKM4uEd13NgZZlaqkQpo7KSQxvzATtq1He574GyWZ6PO3hQhlEdVGwPRwlioNsGV1bBl8DVMxuASsMfeaS1wg//AC8h+I/CtJPUCbPKtComuKe4PjXXqeYL10sbKp9PI734sblNSF1nWwx9PkxSd2uDpZ4lBd4yTGHKnzjb7LfwOK43dGBTr7pBAIYH6pHlhJI6MW2Ja4dTurg7kNiwxrbmR3MZIBB3aNj9U/wOOoeK4CIyBoK3CqbKTcmAk+43mh7eXx6381/7+l/3uAlZlfWLXOxFtiD1B9MXc0/3cH7GEMqVwABa3ri7XsDvY9DbbAuLObLpVNTaVvpAPS/XAKqESWbofuOLLGO+x5h6mx8F+w7XxAO6AMWa7e5udh0LfliQkmHSST5O354AuxrN5N9xw6pI5sqsT8Dh+bPt9JKSSAAHYk3223xaJpobjmM0tvFqbUsQ+yAdtXngGRvybjYzHZiP+iB+qv63me2J0qi/Mb+z3C7++w6hf4nFSrq1Sy35ZYjY+KV+pRfT7RxJH1zR6yFXwqANgijsBgA1IxzLsfkB0HwxJ/ANtj/DFeqOE2Dix36E/iMM8qP0cfstgARbbDJZmUXPXECY+8gH/VbD+CI+KQazaw0sdIPcjAARJErowPW3X19cZMkDqpcvFpLELZwb2642SRoLE7BdRvcdPxxjSNzzqP8Aaja31WUbjSOx9MADKAqkuUaK4BRWGonzHl8fzxW5YkMfdPubWAA7AdvhhipXYgg+ot+/CVhYq3uk9e6n7Q+GGRaI/wDnia2jszbsRdEI2/xMD+A/kvp5W7gF99KGxHozenliskklmJJJuSTck4RIor6WkzOmqKStTmQz2Lb+NXU3WRG7Mp3B/hsfPs0oKzhcJBVKmY5BWy6lQkxvHPpvrjcAmOYD6y7NaxUjp6P8Mc5xxb/RuQlb8rMaFtuyNzF/efxxfgdyUX3I6U2jgMw5FLTxVNJU+0UFXHUrTSMoiqFeIBZIKmIGwddS3sSpBBHWy9BnNbUZfxBPBISkgbJr6f1qemG3p1xz7apMjyQpTzyhM1zpjy4pHG3sjWJRT1wZnOcy5vmMubTZTPT2jpboEnZAKaxVpHKDr8tvx2z6ZS2atGrFihfY6RuIZoarjwK7/wBVFW0YDW0n9JLD4fvxdV8TNS5is8xmbLa2JhSVNOUdJUeBUZ4mvpLRm+pCQR3AxgwVtJVTZhmmW05qJaoVEma5TUESSNFM/OkMaBfpIb73Wzpa9reLD0VZljQVT5XSyVdNKplzLJaqUySIqj+3g0i7qvUOlnXuCN8YJ+H4rbcDpQmkqTW6OpzzPMsqaGiWskdI5JSKLNqNGloxMAPBVxizqSPeW1xa4BHXi563M8qqhLqaKSZGkpaiCUS09VEbjVDIt43Q9wR6FR0xqHM8taGOryejmqIkpyM0y+WcSSmEd5qfSUliHZ13XuFO5ooazIpYYFp6KY5dXZvR5dX5bVTvLDBPVXK1NJJ7wIANj4WBFiWBxLB0yxx/AX+e8a8uEvh9P3/wzKiooq7L6vMIoRSVFJUUUVXDCf6pN7UZAstOh8SEFTqW5G+2npgGCpraeoy+rpophP7VFLl7cl2EsyOAvJDLZtyBYX64PEuWplXFEQglCJW5VESZLllSWrUE7dbY6fNs2zoUHBT12TxUlLS5jlssEsVQJJdaKFjVowo0alJNrnp2tjdop0olbyTrTqTX+jN4WqcwqeKM1kzFXWvkpqx6tZI+UyyiSFSpjsLW2Hyx2kdCMyzasp5SRTQU1LLMENmYyBgqA9r2Nz+eOTyWrjq+NeIZQrBpP0oQWNzpSeNBf5DG5NnNVlOe1Xs9Oar2qmoY2pk1cyV1QleWVBOrc9jjieLY9Uar0M8ck8eS4PfTR1NdJR5FlddVU1PDH7PEoRUQAF3IjTUep3Ivv2xxa1ea5ZUSJLHFLV5xTwyg1AJKmpZlXUfPfxDpt6Y2czpOJeIoEp5kpMqpNUchieRqqpd7bGXlhYwB2Gr4+QvzbK0zanp5aWphFbRWWnqEIeJ2SxMchQna4uN9j53xwY49qLunyeX+Pe+SujyqholjOky1CDeaXc6uhKr7o9NsC8QBGyjMS5HgWORT5MHUD95xelXmIULVZRmAnAs3sggngdvON+YNj2uBgafLM1zpooa2NaHK1kWSWASLLV1LKdhK8f0ar8CT/CUMbs3PL8zdswc4klp5eHsyjJWaqy+jqX8zMgVGJ/xC1/8APG9m1E1bFl8cUnKlnrYqIy73jSYFr9Rcix0798ZkjQZ7m61CKBleUcumphawqJUOu4B6L0PwAwZxBJJ+ikjibTUVOYUENM2vRaZpLq2obi3njTKNtIUMj0OXoPmXD65ZTXoaiSX9IywZbVHMNM8iRy6iZYHAFmFiSPn9XAeYZpRZNTpS08atKkYEMF/BFH2eYjffc26nriWcxZ3lFRkdbnGbnMKaOSpi0vGIBFMKdjfSNiD01Hfz64w/0dVScNcS59XKwlrHomoxICHaLn3eWx3s5IC+i+RxsWMwLqZRhtyF5dlGY57NDmOcF/YvC0ULXRqmO9wiqu6x+fc/jj0SFohHGqALEoWOLSFBi8OkRMBt02XsRsbHGfBoWlplb3xBECALBWCKNsTjkaM3FiCCrqwurqeqsMb3CMEqZw49RPNKWtVT/Mvng0kvGAFG7IL2Ttdb76f3dDiEbFGuLEEFWVtwynqCMFRyKyrYsVJCozG7I5Fgj32v2B+sNjuMQlhC3dANI3ZV6Lva63+r29Oh9YkqIsi2DpcpcAg+8h+yf4HEfv8Aw/PDozIbjodmU9GB6gjFvNj/APZ4fub88AwXEkAY2Ow3JPko64QVP7wfsti1Fi0EFyWkbSuhT7o69cAmVM2pibWHQDyA6DCU72sTfYAdzi1lprAB2uCQxG4Pw2wvoAvgdg/cspNh+rbvgGh9ouhBlOxIO0QItZf1vM4ZEUqZJLiIGwA2aRh9VfT7RxdBFSFHZ5gdIuEW6E27XbzxS7l2ubAAaVUe6ijoqjAAmcuQTYWAVVXZVUdFUYbCGFe17ff3wEb7ItRiNjf5/wCeJ6vXAxO3XFw+hAZhea11QgERX31MD38hhhuX6uUAzC8p3RT9QdmYefkMUNI19VyWve/e/niBkO5JuTub73PniBJPT5jCGWS1Esu7t2ttsLfLEI30ujWvpIax727YhhYBhdRUpKVKoAACPpPF67Yp1BVu0cephdFKdvtN/DEQAgVmALGxRT2HUM/8B/JgSSSSbkkkk9b4ALTIXUtojLKRrJTqp6Hr2/jiHMP2Iv2BhlNiPIgqfKx2xEixIPUbH5YbEiXMP2Iv2MA5vRLm2WZjlzCJTVQlYn020TIRJG1/iBf44Lw/VSLD43w4ycXa7A3R5FRw5ZSUTR1XEmZ5ZmSVNTHV5fBT1JWB430C/LIBJtub4sy162rq4qag4lzZquTnGmRoKjRM8cTShW1VBXxWtupG+4x0fHOQxVFPUZ9TgJVU4i/SIUeGohuIhM3k67A+Y9RvyPC01VT59lstOV50ftbJqBK39mltqA7XtjvYp+bicocmnG7Vi5S1EztBG2WZ3S8yZ6aMPBHI8CmVnpreKOVQCSvQ28On3cW0jLnNRFob2TPi5lpqqn1Qw1syKZPpOVblymxIdRYn3gCdRpoaquzPOzV1D82rqo8yklIULqc0Uw2UbDGjwhQpJVU1Y8lpBWxZfQoB4RUzQSSNPMfsooOlR1Yi9gvilkflYXky7NLejTCOp0idOfaMw4DzMokdZX5jMtXJAoi57QVSxCV0jsodgbPYDV16k3zspa0FN6cU5I33JLj03MuHMto04UlpSYlyrNKdEWRtQkWomUsbn61wDjy6hMhpKn2dVmqKXNaHMuQp+keCnjlDOijcgEjVa5AN+nTH4f1WPrMerHwWTjGlKL2IRzUPLz6kqppYhV1cEkbxwc8f1eaYlWUOvXVtv2wdPmUVXFltNWcQ109LQSwyQRPllrcsgAkia5IAsCScZbVGTuzuaCp1PIzkjMDbxEtt9Di+Cp4aVy0+UV0sYsCFzJhpJ6XtCP346E4JEIb+n9Tb4Pmjn4pzGpQHRNT5lOoYANpeeNwGF+vzx6BQJRniXP3sntC5ZlxprG9oWDc0qDuPqBscRwzPkk/EMbZTQzUcK5NUJMk85mMk/NjJcE3sPS+NbMI6mXiWGOmqHpp3hgWKdL3icQMwJt22sR5Y814r8Sa+hTovLXsdjmSpJl+bJJIY42oJ1kkvbQvKIuT93345DJKeerT9KU80mXzVNoUhytFSlQQ/RgzRMCrE2ub/AOeLcmfM8/zWqyzPpmlpcvp+fPRhY4op5lkWNRPygpZVuWG9um2I8QUlPl+b5ZlOUTzUUebhfbqemkdYUDyFOYqg7FlDXA+yPPHGjj2o0xyJSpmlkFXn+YxvVV0tP7KrvFTLBAqPUsrlDMz7+Dbw2Av16dTBUNmFLxDBG4jMU9blsL9CGWFU1G3mSfl8MacaQwRRLEirFCiJEgFgqIAAoHoMctlNbT0uecQZVPIiGrrWqqXmsFEjONRRSdrspBG/bEU9W6L01RjZdLX5LSzxZlltbDAk5f2lI1kjDMAmltLdNhY+uNw5PT57l9JmGYVk1HlqwtUwxBoomET/APT1Mr6gCRawHQdyTgvOHip6OujnAbnxSUkEIsZKmeYGOOKJDuTcj4de2MHLUzrOoY+GMziNNl+RiD9JGO6VMzxj+r0ruCVH2iR2APffYo6lqKJ5JRelMImrf6PoGpparMK7PamABKOGd6mucG4AWGJ1WK5230nB2cPWV+V5RQVkS09ZnWZQySUqHUaajpn9qkV281XQrH7TW9MGTHhfhqlFW9LTUqXMUQpoVerqHA3SMn6Qnpcltr7+WB6RayqqJs2rkWOeeFIKKlFyKGivrEZJtd2PikNvIdsXxVszTlSNA98Nh77WsPjvf4YQBJAAJJ6Abk40yrsc/Hrr4yUbmNrixBGl1YXV0PVWHljQjkDBSC2m4VWYgsjEW0Pfb0B+t0O++M0AtewJsCxt2A6k4nHIUbYAggqyndWU9QwxEsC5YtPiUWUWLKPq72ut97fuxVcfyy/lgmORWVSCdOoKrMQSjHbQ/r5Hv0Nu92lvP/dwfngAzQrG+kE28v44m50WQbMECsb/ADIGLoKoRRSRGNW1kkEm25GnfA8hHMk/xED5bYaE+SOHw2FhBe9Dg4e+Gw6+flc4AfA+rt5Ye4tv57euGUamVfMgE+mLLAMSFGomyKdxGvYn1xNR1FcpqHJIfR2a15uqKRcRg/WYefliu77kgne5J3J+ONCGmCjU9yzdu/zOLmp4yLBbHt5Yt0wTpmOWTLJPStjKVRIdK7Oeg7MfJfXENwTfYr1vsQR54Lalk1Hlqbjy7HEqpABFOV8bDS6n3S4HU4hONFuHJapp17lSUk0oVl0eIarFgGC+ZHXFslHJCqvbmHYBVUkBrdSO4wKk0sZd1ch+t/jseuGaaVzd3c9erHvio1r0JGGcm5jlJO5JRrn8MR5c393J+y2G1nzP3nDWbzP3nAMfly/3b/snEnilLahG/iVWNlOx6HCRC12Zisa7M25JPko8zibsWWG2ygOqqCdgD39fPDEysQzb/Rv+y2HEMhNirKOrM4IVR5knDb+Z+84XxP3k4QA2Z1Hs2V5xPFDDItLQz1ISpTmJK8YuOanQi9tv/PHjGV5pNluYx5lFBSzSJz/op0JgPOUqbqpHS+2/bHtksENXDVUs4JiqoJ6aTSRcLKhTUL7XHXHh9dl9ZldZU0FYjRz076TcWDp9WRD3VhuDjseHaaknyaMG70h2QVVPleZUuZV9NVvSNFWLGYE0GR3QpeNpLKQDsd/3b20hqIMkkqojoEefwlWU2KuKRrEH0vhqXOJxRJlddGtZl0YKwRMeXNTXJbVTygbG5vuD+OCZJHiySehpUiqKB8wWtesAZaqnbSFEM8V7L02O4Pn5dGaTTT7nWw43FqSNV8/zXMG4GFTUO/8AwrM7iwAdoapFjZgo6gbY51FjzSUSwmOizVX5imM8inq5b3DRsLCOU9R0Uk7aTsboFnmp8s9iYNXZbPVTiDTeWRXkWYPCp2a1iGUb+hG4v9mpWhpqvLainFbURSSzZXG5d47MUYQM43JG/LJJt0LDYUwxwwJRxKi1wUn8WyM6VIaqSSCrVaHNUco7yLyaaoe9itQlgEf9a1j3AvqOhFnMmW5JmfDs+WAVEjyh3lbSU5pVtbxad2A9whu4PxzjmENWppsyUkDTHT1qqWqqQKfcYG2uPsQdx2ItpYqCWngakoc/VqjLHVhQ19E+qSBL+/Sy28SD68bDYnoDs0srpW0ZU4xltwH8DxkZvI9jb2CrX5l4sdc8V+JqSRh4TEoUn7QpnG2B+HcryuhlrTRZrDmCokQhkgK2Mc4MjFwPrKQAbfgTYaOZx1Aanno4pZ6yPTOkUKF2Iia1iB2IuPnjxvivVa02vWi148X8Qkn8qf3oGzBa/Lc3hz6gh5+mGODMKZDZ5oiApKDqbgDzsVB3GM/Mswy6s4nyDN6WcNTz8mlmjl+jqKSoVXh5c0Tbi+pSD0O+/nuCtpq2L2mmfVGwiupuHifujg7hh8Mc7xFHC9PTSMY452roYYp28PLV76izDfSNifh64o6e2qZjzJXrR2rVI9nZCDzD4Om2m/Unz7Y5HiOgqp3ppqNIWmzB6bJ5xKisfFJzIpFYi4tYhiOwwMOKzRSSUlWkVe8LmKOso5TGKoL9fQ6sbnuRimfNuJ6+fL56LKqmOGjqY6uJFhkdZJUuAZXlCgixIsLdTjRDHo4ISyKXJ0kHBOQxpCamWvqqhdJaZqmSK7Dc6Ej6Dy3+fn0EFNRUVO6QqkNOvNqJ3Ysx6apJppJCXJ7kkk+uMiHP8ydF5/DOZpLYXEdRRGEn0aV1YD5HAGeVFfVUMr5tLFk+Rg3mp6Wb2jMa8rZhCZgBGL+ShvMk9cP6lm1WkYcNWeI+Ko55LtR0YlmpojfQkEBtECD3ZiGb1+GO1/nfvjn+G8tNOlTmMtOKabMNHIphf+q0cf8AZx3O9zsWvvjoMaYrYwTdsWJxNpkja9rMN/L1xDCxJEAkFV5tgNbpIJgQfBYFLX6eIkEYG8sWs94wAGDMQHY9GCX02/j8BirDZCKosjkaM3FiDswPRlPUHF/Pj/8AZ4fuP54F8sPhEy/SgYfSobEbgPvv03GHkCGSQ61F3Y2sxtv8MU4nJbW/qb/eAcNEXyPpX+8X7m/LD6UufpF+5vyxXheeENLeydl/vF+5vyxJUjJb6VOnk/8AAYr7YdTYg9u/wOAGFFIYUSUSLJK3ugXAQ92Pe/liELDXuO9ySTv674oJIuCfvwr/AMjFuOel7lGbD5qs300kX+HTyxYWW3XGPDWGNQrgkbfvxa9cuk6Bv64k8bb2KFk0qmtw4TQapELqpBvuQLg+uAa6aJxGEIIDNY+dhbbARd3Nyd8M7XIsdlGlfgO+INLdovWp1FoXZ/h/EYjh+3q2/wAhh1ToTiDL0txh1xoUdPDKrs+5vpAG1tr3wIsQa5YlY1I1sBv56VB+sf59X5rBrISii4VVY7KT3PUnzOEMsqAEkaNWGiPZQOguNz8fPFR/s4/i5/EYje59Tibe7GP1b/eThiZHC2uLtYedr2+Iw2LkTRZ306iNUaN0I+0w8vLz+HU5BjKBFpkceLcxIR1HTU48vLz+GMfOMky3PEC1yMZk1cmpiIWoi1dlYixHoQRjVJZ2ZmN2NyxOId8SjOUHqixptO0ecVPA2cU7H2Selq4uwdjTzfAhrpf/AK2MtqTOMplDyQVFLLuocqGjcHYrq3jIPcHHrLW+84rdUdXjdFdGFmRwGVh5FW2xqXWT+Y6OHxCeNU+Dyd4qSsZWpwlHXghhDq5dNNIDcGnkJ8D+Sk28iOmJwU8GazVMOZzJl2YQBf63MAhmlLBVjqIdjr/XBHrfrjpM94Ud0kqsoA1gFpKNz4XHU8hj39D8jjiHzCQj2TMkkbkfRo5GmtpLbaPpLEr+q3yI79bBkWWOzo2y6rFkVmzVZRURZjT5fnkqUddKIjT5nHpkjcSbJ7Wu1x2DbEd7jcBVVHmHDGaHJ8xjgq4JTBOYo3LwSiRtCToba0cb77HzupscyaPMZxaKeCoiC3WT2iJSVG3iSZw4t0sR+G5qWZcuImaRJ8x2MIDrLDSW6O7AlWcfVF7DqbnZac85ak2zDLLCLTgdTwbI6cS5nShmMSU+YbEWvomjUMQLC/yx2cVZna8S1NJlYpWY5fTmY1iyNDCgsQ9oiG1XNgL739LjmuAMqq40rc8q1YNXKYKQyA63j1iWSY37MbAedj8+gqp1yjOlzSfUlDmFDHl9ROAStNURPqjaTTvpPT/yxwOsisnCKPOlOVyfsBT8LZ1DPUVNPnaCrlkMk5aCSBXd2LtcI7C1z0K4IfhaorYEkzbOneeOR7JSIpQRkDwpzAAGPc6TjdEomXmRusqsEYPGyyKR195SRjPzHNctyyNpKuoQPuYqdHUzyt2AUXt8T+OMWiTpWWaoolQ5XlmXRMaSniiWNS81RJpL6QLlpZ5N/wAR8MBT8UZJG7xQNVV8yrqZaKIsoW4F9b2P3LjLjoM94jmWfNDLR5Wh1Q0qXQuOoCI2/Tq7C/l6dRSUdFQxCKjp4oUHURixY+bt7xPxONOi+SrzUuDHGb8S1oC5dkYplO/tGaObKD3EZC/904vpskZ6iOuziqfMa1LGLmjTS05/1UPTb4ethjZ+eFiagkRlmlLYWFhYWJlIsLEgyhHW25Itt/H+euI4BIue/JjG9gUt5C4bFOJFyUVLCwI33ubX64jgBC7j44l/PbE1LBY9DINzruVBJ1euLNT/AG0+9MSojqKHLhGKDUwA0j598QeacCNjAbabMQxIFri52+GCfLEx/Z//ANn8DhIkwJZZ2TVyCG1Cyk+8tifywjNUbWgYjvv16+eCl3w47fHCGCiWoI/sbHUo077ghrm4+Xb92FzJjGrJH4ma2ltyF3Fz+/BW2/xGEbbfA/uwACCWquNUO23S+o6iAN+m3f4YQmqBcGEswAO1wO++/bBfb5YkwGp/icMSA0lnLDXCVUld730gjfp3HfC5tQelOevcnbr12+XzwV2GF2whg5km6LHuFjYr8WYEX+Q+/ETNOty0B0gbtckb2t0F8F9/n/E4c+6nwP8A3rYfJHjgGWWcqr8ghixBXVcqLbH88XRvUOLtA6xr/aPf12CebHrbt3xYv8bYJb+ypP8ADIfmW64RJArzTyILRcvS6rHGTfSpbdjfqfM4GeaqW45BLfaB8J6jYdcH9z88VuBdvh/HAAKs05dFMDDUQuq5tc97W6Ym81QWIFObDw9TYaR6/C3+WC6cDmR7fXj/AH4ivVP8a/jY4BdxRgKiSyp4mGpIm77+8/6vl54ldm1u3iY31E9ScWTf21R/8Vh8hsBiH5HDQPcrQKBIWF7KQLDvirtguw5bfE/wwO3UfA/vwdhLllNyCD3GEzs2xttv3/icOcNtgQ6Gc7geSqPwvjNzDJ8lzX/lCigne2kSkFZgPISoQ/441pffb+e2IbYabi7Qo8HJScAcKMxKNmMQP1Uq1tby+kjJt88XUnBXCdI6SiiaodN1NbK8yX9YxZD81OOm7jDYk5uXINtIgSTYE3AAA8gALAAeWH0q8c0ciRSRSJodJ0Do43Nip2xM2/dia+63xb/unEFyJ/hOdfhfhx21LSyRXNytPU1EaE3vuqtbBdNk2SUTmWmoadJTvzWUyS389chJxsRW1H5fvOFKBddvLCruCnvQN64WLGAt88Qw2SQ18K+JYbCGNfCviWGwANhYmOh/wj/vYjhsQ1/34V8Sw2EMbuPjiV/XD2G2FhiP/9k=;imageBorder=default;" parent="1" vertex="1">
          <mxGeometry x="20" y="-417.5" width="140.06" height="95" as="geometry" />
        </mxCell>
        <mxCell id="AHZsWH8fcAbMLCLpVFPQ-87" value="Analysis" style="text;html=1;align=center;verticalAlign=middle;whiteSpace=wrap;rounded=0;" parent="1" vertex="1">
          <mxGeometry x="-120" y="-170" width="60" height="30" as="geometry" />
        </mxCell>
        <mxCell id="AHZsWH8fcAbMLCLpVFPQ-90" value="Predictive Modeling" style="text;html=1;align=center;verticalAlign=middle;whiteSpace=wrap;rounded=0;" parent="1" vertex="1">
          <mxGeometry x="14.339999999999918" y="-160" width="60" height="30" as="geometry" />
        </mxCell>
        <mxCell id="AHZsWH8fcAbMLCLpVFPQ-91" value="" style="shape=image;imageAspect=0;aspect=fixed;verticalLabelPosition=bottom;verticalAlign=top;image=https://th.bing.com/th/id/OIP.FJsMPN5kPMI7JuqhsaP7rAHaC3?w=335&amp;h=135&amp;c=7&amp;r=0&amp;o=5&amp;dpr=1.3&amp;pid=1.7;imageBorder=default;" parent="1" vertex="1">
          <mxGeometry x="-362.83000000000004" y="-550" width="198.87" height="80" as="geometry" />
        </mxCell>
        <mxCell id="aHfOVpVAorrCFZPQz_6L-1" style="edgeStyle=orthogonalEdgeStyle;rounded=0;orthogonalLoop=1;jettySize=auto;html=1;exitX=0.5;exitY=1;exitDx=0;exitDy=0;entryX=0.75;entryY=1;entryDx=0;entryDy=0;" edge="1" parent="1" source="AHZsWH8fcAbMLCLpVFPQ-10" target="AHZsWH8fcAbMLCLpVFPQ-10">
          <mxGeometry relative="1" as="geometry" />
        </mxCell>
        <mxCell id="aHfOVpVAorrCFZPQz_6L-2" value="" style="shape=image;imageAspect=0;aspect=fixed;verticalLabelPosition=bottom;verticalAlign=top;image=https://cdn.icon-icons.com/icons2/2699/PNG/512/apache_kafka_logo_icon_167866.png;" vertex="1" parent="1">
          <mxGeometry x="-529.14" y="50" width="100" height="50" as="geometry" />
        </mxCell>
        <mxCell id="aHfOVpVAorrCFZPQz_6L-3" value="" style="shape=image;imageAspect=0;aspect=fixed;verticalLabelPosition=bottom;verticalAlign=top;image=https://cdn.icon-icons.com/icons2/2699/PNG/512/apache_kafka_logo_icon_167866.png;" vertex="1" parent="1">
          <mxGeometry x="155.05999999999995" y="-100" width="90" height="45" as="geometry" />
        </mxCell>
        <mxCell id="aHfOVpVAorrCFZPQz_6L-5" value="" style="shape=image;imageAspect=0;aspect=fixed;verticalLabelPosition=bottom;verticalAlign=top;image=https://th.bing.com/th/id/OIP.kx3F-YEucZVQG5pbc1hIdwAAAA?w=321&amp;h=171&amp;c=7&amp;r=0&amp;o=5&amp;pid=1.7;imageBorder=default;" vertex="1" parent="1">
          <mxGeometry x="-135" y="-560" width="175" height="93.22" as="geometry" />
        </mxCell>
      </root>
    </mxGraphModel>
  </diagram>
</mxfile>
